*
*
G04 PADS VX.2.4 Build Number: 11282995 generated Gerber (RS-274-X) file*
G04 PC Version=2.1*
*
%IN "GBSC-V1.6-20221119.pcb"*%
*
%MOIN*%
*
%FSLAX35Y35*%
*
*
*
*
G04 PC Standard Apertures*
*
*
G04 Thermal Relief Aperture macro.*
%AMTER*
1,1,$1,0,0*
1,0,$1-$2,0,0*
21,0,$3,$4,0,0,45*
21,0,$3,$4,0,0,135*
%
*
*
G04 Annular Aperture macro.*
%AMANN*
1,1,$1,0,0*
1,0,$2,0,0*
%
*
*
G04 Odd Aperture macro.*
%AMODD*
1,1,$1,0,0*
1,0,$1-0.005,0,0*
%
*
*
G04 PC Custom Aperture Macros*
*
*
*
*
*
*
G04 PC Aperture Table*
*
%ADD010C,0.001*%
%ADD030C,0.006*%
%ADD052C,0.00787*%
%ADD056C,0.00787*%
%ADD092R,0.027X0.029*%
%ADD093R,0.029X0.027*%
%ADD097R,0.037X0.039*%
%ADD098R,0.055X0.045*%
%ADD169R,0.05618X0.13098*%
%ADD170R,0.039X0.037*%
%ADD171O,0.029X0.079*%
%ADD172R,0.01287X0.03177*%
%ADD173R,0.02075X0.03177*%
%ADD174R,0.055X0.085*%
%ADD175R,0.061X0.051*%
%ADD176C,0.06799*%
%ADD177O,0.1861X0.15067*%
%ADD178R,0.03768X0.04437*%
%ADD179C,0.09555*%
%ADD180O,0.17035X0.17035*%
%ADD181O,0.16248X0.16248*%
%ADD182C,0.08374*%
%ADD183C,0.10343*%
%ADD184R,0.065X0.065*%
%ADD185C,0.065*%
%ADD186C,0.105*%
%ADD187O,0.07587X0.03256*%
%ADD188R,0.051X0.061*%
%ADD189O,0.06406X0.01681*%
%ADD190R,0.16248X0.16248*%
%ADD191R,0.08374X0.02075*%
%ADD192O,0.08374X0.04437*%
%ADD193C,0.09161*%
%ADD194R,0.17823X0.12311*%
%ADD195R,0.05618X0.04831*%
%ADD196R,0.04831X0.05618*%
%ADD197R,0.04437X0.03768*%
%ADD198R,0.13098X0.05618*%
%ADD199R,0.085X0.055*%
%ADD201R,0.05224X0.08374*%
%ADD202O,0.0365X0.01287*%
%ADD203O,0.01287X0.0365*%
%ADD204R,0.16248X0.16248*%
%ADD205O,0.06799X0.01917*%
%ADD206C,0.04831*%
%ADD207R,0.10343X0.07587*%
%ADD209O,0.079X0.029*%
%ADD211R,0.045X0.055*%
%ADD212R,0.035X0.035*%
%ADD213R,0.10736X0.05224*%
%ADD214C,0.06406*%
%ADD215C,0.13098*%
%ADD216C,0.1428*%
%ADD217R,0.04831X0.02469*%
%ADD218R,0.06406X0.06406*%
%ADD219C,0.16248*%
%ADD222O,0.02862X0.08374*%
%ADD223R,0.01602X0.08374*%
%ADD224O,0.08374X0.10343*%
%ADD225O,0.08374X0.1428*%
%ADD226C,0.05618*%
%ADD227R,0.0798X0.01878*%
%ADD228R,0.03059X0.10343*%
%ADD229R,0.10343X0.03059*%
%ADD230R,0.06996X0.02862*%
%ADD231R,0.03894X0.04894*%
%ADD232R,0.04894X0.03894*%
%ADD233O,0.08302X0.02475*%
%ADD234O,0.02475X0.08302*%
%ADD267R,0.06406X0.10343*%
%ADD268C,0.04437*%
%ADD269O,0.06209X0.01484*%
%ADD270R,0.11524X0.10343*%
%ADD271O,0.15067X0.13492*%
%ADD272R,0.051X0.059*%
*
*
*
*
G04 PC Circuitry*
G04 Layer Name GBSC-V1.6-20221119.pcb - circuitry*
%LPD*%
*
*
G04 PC Custom Flashes*
G04 Layer Name GBSC-V1.6-20221119.pcb - flashes*
%LPD*%
*
*
G04 PC Circuitry*
G04 Layer Name GBSC-V1.6-20221119.pcb - circuitry*
%LPD*%
*
G54D10*
G54D30*
G01X579615Y346863D02*
X574715D01*
Y338963*
X579615*
Y346863*
X574765Y338963D02*
Y346863D01*
X575065Y338963D02*
Y346863D01*
X575365Y338963D02*
Y346863D01*
X575665Y338963D02*
Y346863D01*
X575965Y338963D02*
Y346863D01*
X576265Y338963D02*
Y346863D01*
X576565Y338963D02*
Y346863D01*
X576865Y338963D02*
Y346863D01*
X577165Y338963D02*
Y346863D01*
X577465Y338963D02*
Y346863D01*
X577765Y338963D02*
Y346863D01*
X578065Y338963D02*
Y346863D01*
X578365Y338963D02*
Y346863D01*
X578665Y338963D02*
Y346863D01*
X578965Y338963D02*
Y346863D01*
X579265Y338963D02*
Y346863D01*
X579565Y338963D02*
Y346863D01*
X587351Y371603D02*
X566979D01*
Y359498*
X587351*
Y371603*
X567265Y359498D02*
Y371603D01*
X567565Y359498D02*
Y371603D01*
X567865Y359498D02*
Y371603D01*
X568165Y359498D02*
Y371603D01*
X568465Y359498D02*
Y371603D01*
X568765Y359498D02*
Y371603D01*
X569065Y359498D02*
Y371603D01*
X569365Y359498D02*
Y371603D01*
X569665Y359498D02*
Y371603D01*
X569965Y359498D02*
Y371603D01*
X570265Y359498D02*
Y371603D01*
X570565Y359498D02*
Y371603D01*
X570865Y359498D02*
Y371603D01*
X571165Y359498D02*
Y371603D01*
X571465Y359498D02*
Y371603D01*
X571765Y359498D02*
Y371603D01*
X572065Y359498D02*
Y371603D01*
X572365Y359498D02*
Y371603D01*
X572665Y359498D02*
Y371603D01*
X572965Y359498D02*
Y371603D01*
X573265Y359498D02*
Y371603D01*
X573565Y359498D02*
Y371603D01*
X573865Y359498D02*
Y371603D01*
X574165Y359498D02*
Y371603D01*
X574465Y359498D02*
Y371603D01*
X574765Y359498D02*
Y371603D01*
X575065Y359498D02*
Y371603D01*
X575365Y359498D02*
Y371603D01*
X575665Y359498D02*
Y371603D01*
X575965Y359498D02*
Y371603D01*
X576265Y359498D02*
Y371603D01*
X576565Y359498D02*
Y371603D01*
X576865Y359498D02*
Y371603D01*
X577165Y359498D02*
Y371603D01*
X577465Y359498D02*
Y371603D01*
X577765Y359498D02*
Y371603D01*
X578065Y359498D02*
Y371603D01*
X578365Y359498D02*
Y371603D01*
X578665Y359498D02*
Y371603D01*
X578965Y359498D02*
Y371603D01*
X579265Y359498D02*
Y371603D01*
X579565Y359498D02*
Y371603D01*
X579865Y359498D02*
Y371603D01*
X580165Y359498D02*
Y371603D01*
X580465Y359498D02*
Y371603D01*
X580765Y359498D02*
Y371603D01*
X581065Y359498D02*
Y371603D01*
X581365Y359498D02*
Y371603D01*
X581665Y359498D02*
Y371603D01*
X581965Y359498D02*
Y371603D01*
X582265Y359498D02*
Y371603D01*
X582565Y359498D02*
Y371603D01*
X582865Y359498D02*
Y371603D01*
X583165Y359498D02*
Y371603D01*
X583465Y359498D02*
Y371603D01*
X583765Y359498D02*
Y371603D01*
X584065Y359498D02*
Y371603D01*
X584365Y359498D02*
Y371603D01*
X584665Y359498D02*
Y371603D01*
X584965Y359498D02*
Y371603D01*
X585265Y359498D02*
Y371603D01*
X585565Y359498D02*
Y371603D01*
X585865Y359498D02*
Y371603D01*
X586165Y359498D02*
Y371603D01*
X586465Y359498D02*
Y371603D01*
X586765Y359498D02*
Y371603D01*
X587065Y359498D02*
Y371603D01*
X668097Y310718D02*
Y305818D01*
X675997*
Y310718*
X668097*
X668261Y305818D02*
Y310718D01*
X668561Y305818D02*
Y310718D01*
X668861Y305818D02*
Y310718D01*
X669161Y305818D02*
Y310718D01*
X669461Y305818D02*
Y310718D01*
X669761Y305818D02*
Y310718D01*
X670061Y305818D02*
Y310718D01*
X670361Y305818D02*
Y310718D01*
X670661Y305818D02*
Y310718D01*
X670961Y305818D02*
Y310718D01*
X671261Y305818D02*
Y310718D01*
X671561Y305818D02*
Y310718D01*
X671861Y305818D02*
Y310718D01*
X672161Y305818D02*
Y310718D01*
X672461Y305818D02*
Y310718D01*
X672761Y305818D02*
Y310718D01*
X673061Y305818D02*
Y310718D01*
X673361Y305818D02*
Y310718D01*
X673661Y305818D02*
Y310718D01*
X673961Y305818D02*
Y310718D01*
X674261Y305818D02*
Y310718D01*
X674561Y305818D02*
Y310718D01*
X674861Y305818D02*
Y310718D01*
X675161Y305818D02*
Y310718D01*
X675461Y305818D02*
Y310718D01*
X675761Y305818D02*
Y310718D01*
X643357Y318454D02*
Y298082D01*
X655462*
Y318454*
X643357*
X643361Y298082D02*
Y318454D01*
X643661Y298082D02*
Y318454D01*
X643961Y298082D02*
Y318454D01*
X644261Y298082D02*
Y318454D01*
X644561Y298082D02*
Y318454D01*
X644861Y298082D02*
Y318454D01*
X645161Y298082D02*
Y318454D01*
X645461Y298082D02*
Y318454D01*
X645761Y298082D02*
Y318454D01*
X646061Y298082D02*
Y318454D01*
X646361Y298082D02*
Y318454D01*
X646661Y298082D02*
Y318454D01*
X646961Y298082D02*
Y318454D01*
X647261Y298082D02*
Y318454D01*
X647561Y298082D02*
Y318454D01*
X647861Y298082D02*
Y318454D01*
X648161Y298082D02*
Y318454D01*
X648461Y298082D02*
Y318454D01*
X648761Y298082D02*
Y318454D01*
X649061Y298082D02*
Y318454D01*
X649361Y298082D02*
Y318454D01*
X649661Y298082D02*
Y318454D01*
X649961Y298082D02*
Y318454D01*
X650261Y298082D02*
Y318454D01*
X650561Y298082D02*
Y318454D01*
X650861Y298082D02*
Y318454D01*
X651161Y298082D02*
Y318454D01*
X651461Y298082D02*
Y318454D01*
X651761Y298082D02*
Y318454D01*
X652061Y298082D02*
Y318454D01*
X652361Y298082D02*
Y318454D01*
X652661Y298082D02*
Y318454D01*
X652961Y298082D02*
Y318454D01*
X653261Y298082D02*
Y318454D01*
X653561Y298082D02*
Y318454D01*
X653861Y298082D02*
Y318454D01*
X654161Y298082D02*
Y318454D01*
X654461Y298082D02*
Y318454D01*
X654761Y298082D02*
Y318454D01*
X655061Y298082D02*
Y318454D01*
X655361Y298082D02*
Y318454D01*
X441820Y374816D02*
X436920D01*
Y366916*
X441820*
Y374816*
X436970Y366916D02*
Y374816D01*
X437270Y366916D02*
Y374816D01*
X437570Y366916D02*
Y374816D01*
X437870Y366916D02*
Y374816D01*
X438170Y366916D02*
Y374816D01*
X438470Y366916D02*
Y374816D01*
X438770Y366916D02*
Y374816D01*
X439070Y366916D02*
Y374816D01*
X439370Y366916D02*
Y374816D01*
X439670Y366916D02*
Y374816D01*
X439970Y366916D02*
Y374816D01*
X440270Y366916D02*
Y374816D01*
X440570Y366916D02*
Y374816D01*
X440870Y366916D02*
Y374816D01*
X441170Y366916D02*
Y374816D01*
X441470Y366916D02*
Y374816D01*
X441770Y366916D02*
Y374816D01*
X449556Y399556D02*
X429184D01*
Y387451*
X449556*
Y399556*
X429470Y387451D02*
Y399556D01*
X429770Y387451D02*
Y399556D01*
X430070Y387451D02*
Y399556D01*
X430370Y387451D02*
Y399556D01*
X430670Y387451D02*
Y399556D01*
X430970Y387451D02*
Y399556D01*
X431270Y387451D02*
Y399556D01*
X431570Y387451D02*
Y399556D01*
X431870Y387451D02*
Y399556D01*
X432170Y387451D02*
Y399556D01*
X432470Y387451D02*
Y399556D01*
X432770Y387451D02*
Y399556D01*
X433070Y387451D02*
Y399556D01*
X433370Y387451D02*
Y399556D01*
X433670Y387451D02*
Y399556D01*
X433970Y387451D02*
Y399556D01*
X434270Y387451D02*
Y399556D01*
X434570Y387451D02*
Y399556D01*
X434870Y387451D02*
Y399556D01*
X435170Y387451D02*
Y399556D01*
X435470Y387451D02*
Y399556D01*
X435770Y387451D02*
Y399556D01*
X436070Y387451D02*
Y399556D01*
X436370Y387451D02*
Y399556D01*
X436670Y387451D02*
Y399556D01*
X436970Y387451D02*
Y399556D01*
X437270Y387451D02*
Y399556D01*
X437570Y387451D02*
Y399556D01*
X437870Y387451D02*
Y399556D01*
X438170Y387451D02*
Y399556D01*
X438470Y387451D02*
Y399556D01*
X438770Y387451D02*
Y399556D01*
X439070Y387451D02*
Y399556D01*
X439370Y387451D02*
Y399556D01*
X439670Y387451D02*
Y399556D01*
X439970Y387451D02*
Y399556D01*
X440270Y387451D02*
Y399556D01*
X440570Y387451D02*
Y399556D01*
X440870Y387451D02*
Y399556D01*
X441170Y387451D02*
Y399556D01*
X441470Y387451D02*
Y399556D01*
X441770Y387451D02*
Y399556D01*
X442070Y387451D02*
Y399556D01*
X442370Y387451D02*
Y399556D01*
X442670Y387451D02*
Y399556D01*
X442970Y387451D02*
Y399556D01*
X443270Y387451D02*
Y399556D01*
X443570Y387451D02*
Y399556D01*
X443870Y387451D02*
Y399556D01*
X444170Y387451D02*
Y399556D01*
X444470Y387451D02*
Y399556D01*
X444770Y387451D02*
Y399556D01*
X445070Y387451D02*
Y399556D01*
X445370Y387451D02*
Y399556D01*
X445670Y387451D02*
Y399556D01*
X445970Y387451D02*
Y399556D01*
X446270Y387451D02*
Y399556D01*
X446570Y387451D02*
Y399556D01*
X446870Y387451D02*
Y399556D01*
X447170Y387451D02*
Y399556D01*
X447470Y387451D02*
Y399556D01*
X447770Y387451D02*
Y399556D01*
X448070Y387451D02*
Y399556D01*
X448370Y387451D02*
Y399556D01*
X448670Y387451D02*
Y399556D01*
X448970Y387451D02*
Y399556D01*
X449270Y387451D02*
Y399556D01*
G54D52*
X795026Y375841D02*
Y369435D01*
X800644*
Y375841*
X795026*
X795276Y369435D02*
Y375841D01*
X795669Y369435D02*
Y375841D01*
X796063Y369435D02*
Y375841D01*
X796457Y369435D02*
Y375841D01*
X796850Y369435D02*
Y375841D01*
X797244Y369435D02*
Y375841D01*
X797638Y369435D02*
Y375841D01*
X798031Y369435D02*
Y375841D01*
X798425Y369435D02*
Y375841D01*
X798819Y369435D02*
Y375841D01*
X799213Y369435D02*
Y375841D01*
X799606Y369435D02*
Y375841D01*
X800000Y369435D02*
Y375841D01*
X800394Y369435D02*
Y375841D01*
X795026Y397494D02*
Y391089D01*
X800644*
Y397494*
X795026*
X795276Y391089D02*
Y397494D01*
X795669Y391089D02*
Y397494D01*
X796063Y391089D02*
Y397494D01*
X796457Y391089D02*
Y397494D01*
X796850Y391089D02*
Y397494D01*
X797244Y391089D02*
Y397494D01*
X797638Y391089D02*
Y397494D01*
X798031Y391089D02*
Y397494D01*
X798425Y391089D02*
Y397494D01*
X798819Y391089D02*
Y397494D01*
X799213Y391089D02*
Y397494D01*
X799606Y391089D02*
Y397494D01*
X800000Y391089D02*
Y397494D01*
X800394Y391089D02*
Y397494D01*
X129134Y442520D02*
G75*
G03X129134I-7480J0D01*
G01X811811Y131890D02*
G03X811811I-7480J0D01*
G01X129134Y127559D02*
G03X129134I-7480J0D01*
G01X795276Y391339D02*
Y397244D01*
X800394*
Y391339*
X795276*
Y369685D02*
Y375591D01*
X800394*
Y369685*
X795276*
X129134Y442520D02*
G03X129134I-7480J0D01*
G01X811811Y131890D02*
G03X811811I-7480J0D01*
G01X129134Y127559D02*
G03X129134I-7480J0D01*
G01X795276Y397007D02*
X800394D01*
X795276Y396298D02*
X800394D01*
X795276Y395589D02*
X800394D01*
X795276Y394881D02*
X800394D01*
X795276Y394172D02*
X800394D01*
X795276Y393463D02*
X800394D01*
X795276Y392755D02*
X800394D01*
X795276Y392046D02*
X800394D01*
X795276Y375353D02*
X800394D01*
X795276Y374644D02*
X800394D01*
X795276Y373936D02*
X800394D01*
X795276Y373227D02*
X800394D01*
X795276Y372518D02*
X800394D01*
X795276Y371810D02*
X800394D01*
X795276Y371101D02*
X800394D01*
X795276Y370392D02*
X800394D01*
X114180Y442833D02*
X129127D01*
X114184Y442125D02*
X129123D01*
X114243Y443542D02*
X129064D01*
X114255Y441416D02*
X129052D01*
X114376Y444251D02*
X128931D01*
X114396Y440707D02*
X128911D01*
X114582Y444959D02*
X128725D01*
X114611Y439999D02*
X128696D01*
X114868Y445668D02*
X128439D01*
X114906Y439290D02*
X128401D01*
X115244Y446377D02*
X128063D01*
X115294Y438581D02*
X128013D01*
X115728Y447085D02*
X127579D01*
X115792Y437873D02*
X127515D01*
X116349Y447794D02*
X126958D01*
X116431Y437164D02*
X126876D01*
X117164Y448503D02*
X126143D01*
X117274Y436455D02*
X126033D01*
X118310Y449211D02*
X124997D01*
X118478Y435747D02*
X124829D01*
X120562Y449920D02*
X122745D01*
X796857Y132203D02*
X811804D01*
X796861Y131495D02*
X811801D01*
X796921Y132912D02*
X811741D01*
X796932Y130786D02*
X811729D01*
X797053Y133621D02*
X811608D01*
X797073Y130077D02*
X811588D01*
X797259Y134329D02*
X811402D01*
X797288Y129369D02*
X811373D01*
X797545Y135038D02*
X811116D01*
X797584Y128660D02*
X811078D01*
X797921Y135747D02*
X810740D01*
X797971Y127951D02*
X810690D01*
X798405Y136455D02*
X810256D01*
X798469Y127243D02*
X810193D01*
X799026Y137164D02*
X809635D01*
X799108Y126534D02*
X809553D01*
X799841Y137873D02*
X808821D01*
X799951Y125825D02*
X808710D01*
X800987Y138581D02*
X807674D01*
X801155Y125117D02*
X807506D01*
X803239Y139290D02*
X805422D01*
X114180Y127873D02*
X129127D01*
X114184Y127164D02*
X129123D01*
X114243Y128581D02*
X129064D01*
X114255Y126455D02*
X129052D01*
X114376Y129290D02*
X128931D01*
X114396Y125747D02*
X128911D01*
X114582Y129999D02*
X128725D01*
X114611Y125038D02*
X128696D01*
X114868Y130707D02*
X128439D01*
X114906Y124329D02*
X128401D01*
X115244Y131416D02*
X128063D01*
X115294Y123621D02*
X128013D01*
X115728Y132125D02*
X127579D01*
X115792Y122912D02*
X127515D01*
X116349Y132833D02*
X126958D01*
X116431Y122203D02*
X126876D01*
X117164Y133542D02*
X126143D01*
X117274Y121495D02*
X126033D01*
X118310Y134251D02*
X124997D01*
X118478Y120786D02*
X124829D01*
X120562Y134959D02*
X122745D01*
G54D56*
X100000Y100000D02*
X816535D01*
Y149213*
X800787*
Y294882*
X816535*
Y501575*
X686614*
Y513386*
X100000*
Y417323*
X118110*
Y405906*
X100000*
Y211417*
X118110*
Y198819*
X100000*
Y100000*
G54D92*
X728346Y217685D03*
Y221685D03*
X148425Y343732D03*
Y339732D03*
X668504Y457449D03*
Y461449D03*
X652756Y403512D03*
Y407512D03*
X604331Y372472D03*
Y368472D03*
X606693Y354362D03*
Y350362D03*
X282283Y444913D03*
Y440913D03*
Y430283D03*
Y434283D03*
X331890Y458236D03*
Y462236D03*
X529921Y330677D03*
Y334677D03*
X524803Y330677D03*
Y334677D03*
X532677Y209024D03*
Y213024D03*
X510630Y212630D03*
Y208630D03*
X505512Y212630D03*
Y208630D03*
X238189Y221291D03*
Y217291D03*
X148425Y283496D03*
Y279496D03*
Y313811D03*
Y309811D03*
X737008Y183039D03*
Y187039D03*
X243307Y221291D03*
Y217291D03*
X255512D03*
Y221291D03*
X275197D03*
Y217291D03*
X280315D03*
Y221291D03*
X296850Y217291D03*
Y221291D03*
X436220Y329496D03*
Y333496D03*
X414173Y238945D03*
Y242945D03*
X431102Y333102D03*
Y329102D03*
X286614Y221291D03*
Y217291D03*
X627165Y403512D03*
Y407512D03*
X642520Y403512D03*
Y407512D03*
X291732Y217291D03*
Y221291D03*
X265748Y217291D03*
Y221291D03*
X248819Y217291D03*
Y221291D03*
X637008Y403512D03*
Y407512D03*
X217717Y369654D03*
Y373654D03*
X226378Y221291D03*
Y217291D03*
X291339Y375165D03*
Y379165D03*
X312992D03*
Y375165D03*
X629134Y303906D03*
Y307906D03*
X753150Y346031D03*
Y350031D03*
X260236Y217291D03*
Y221291D03*
X628346Y207449D03*
Y211449D03*
X685039Y310992D03*
Y314992D03*
X329134Y381071D03*
Y385071D03*
X674409Y422409D03*
Y426409D03*
X661417Y397606D03*
Y401606D03*
X647638Y403512D03*
Y407512D03*
X663780Y423591D03*
Y427591D03*
X680709Y411055D03*
Y407055D03*
X366142Y404756D03*
Y400756D03*
X663780Y412173D03*
Y416173D03*
X632283Y407512D03*
Y403512D03*
X253150Y202331D03*
Y206331D03*
X279528Y206268D03*
Y210268D03*
X305512Y206268D03*
Y210268D03*
X241732Y206331D03*
Y202331D03*
X274409Y210268D03*
Y206268D03*
X300394Y210268D03*
Y206268D03*
X344094Y458236D03*
Y462236D03*
X352362Y458236D03*
Y462236D03*
X231890Y217291D03*
Y221291D03*
X247638Y202331D03*
Y206331D03*
X285039Y206268D03*
Y210268D03*
X310630Y206268D03*
Y210268D03*
X175197Y354756D03*
Y350756D03*
X207874Y216504D03*
Y220504D03*
X214173Y216504D03*
Y220504D03*
X545669Y209811D03*
Y213811D03*
X561024Y209811D03*
Y213811D03*
X550787Y209811D03*
Y213811D03*
X555906Y209811D03*
Y213811D03*
X202756Y216504D03*
Y220504D03*
X219291Y216504D03*
Y220504D03*
X491339Y294457D03*
Y298457D03*
X653937Y449575D03*
Y453575D03*
X659055Y422016D03*
Y426016D03*
X660236Y457449D03*
Y461449D03*
X530315Y454693D03*
Y458693D03*
X801181Y440520D03*
Y444520D03*
X616535Y182252D03*
Y186252D03*
X530315Y440520D03*
Y444520D03*
X492520Y452331D03*
Y456331D03*
X487402D03*
Y452331D03*
X312598Y216110D03*
Y220110D03*
X225984Y369654D03*
Y373654D03*
X409055Y238945D03*
Y242945D03*
X261811Y425228D03*
Y421228D03*
X270472Y217291D03*
Y221291D03*
X722835Y197276D03*
Y193276D03*
Y208236D03*
Y212236D03*
X189370Y232252D03*
Y236252D03*
X158268Y238945D03*
Y242945D03*
X735433Y212236D03*
Y208236D03*
X722835Y221685D03*
Y217685D03*
X728346Y196882D03*
Y192882D03*
Y208236D03*
Y212236D03*
G54D93*
X430283Y266535D03*
X434283D03*
X187827Y381890D03*
X183827D03*
X174378D03*
X178378D03*
X272016Y440945D03*
X276016D03*
X272016Y434646D03*
X276016D03*
X503575Y462598D03*
X499575D03*
X381071Y368504D03*
X385071D03*
X327921Y467323D03*
X331921D03*
X598457Y259449D03*
X594457D03*
X520110Y212992D03*
X516110D03*
X690913Y153937D03*
X694913D03*
Y159449D03*
X690913D03*
X720110D03*
X716110D03*
X636252D03*
X632252D03*
Y153937D03*
X636252D03*
X716110D03*
X720110D03*
X350756Y259449D03*
X354756D03*
X434283Y278740D03*
X430283D03*
X434283Y305906D03*
X430283D03*
X334614Y324803D03*
X338614D03*
X434283Y317717D03*
X430283D03*
X338220Y248031D03*
X334220D03*
X340126Y452756D03*
X344126D03*
X332646Y299213D03*
X336646D03*
X182646Y260630D03*
X186646D03*
X183890Y305906D03*
X179890D03*
X185858Y285433D03*
X181858D03*
X183496Y313780D03*
X179496D03*
X356724Y452756D03*
X352724D03*
X328315D03*
X332315D03*
X480740Y285433D03*
X476740D03*
Y308661D03*
X480740D03*
X613417Y459055D03*
X609417D03*
X615386Y437795D03*
X611386D03*
X701543Y429921D03*
X705543D03*
X720441Y400394D03*
X724441D03*
X726016Y379134D03*
X722016D03*
X699969Y491339D03*
X703969D03*
X622409Y186614D03*
X626409D03*
X631134Y201181D03*
X627134D03*
X600819Y186614D03*
X596819D03*
X676346Y462205D03*
X680346D03*
X415717Y403543D03*
X419717D03*
X594457Y283465D03*
X598457D03*
X594457Y277559D03*
X598457D03*
X339732Y467323D03*
X343732D03*
X355937D03*
X351937D03*
X208299Y381890D03*
X204299D03*
X594457Y233858D03*
X598457D03*
Y253150D03*
X594457D03*
Y295276D03*
X598457D03*
X362173Y420472D03*
X366173D03*
Y426378D03*
X362173D03*
X217748Y381890D03*
X213748D03*
X366173Y432283D03*
X362173D03*
Y437402D03*
X366173D03*
X603118Y404331D03*
X607118D03*
X622803Y397244D03*
X626803D03*
X603118Y409843D03*
X607118D03*
X632646Y397244D03*
X636646D03*
X298787Y367717D03*
X302787D03*
X648394Y396850D03*
X652394D03*
X591307Y425197D03*
X595307D03*
X591307Y430709D03*
X595307D03*
X591307Y414567D03*
X595307D03*
X591307Y419685D03*
X595307D03*
X745638Y316929D03*
X749638D03*
X779559Y389370D03*
X775559D03*
X785402Y406299D03*
X789402D03*
X705543Y441732D03*
X701543D03*
X772409Y417323D03*
X776409D03*
X701543Y436614D03*
X705543D03*
X627134Y195276D03*
X631134D03*
X611055Y186614D03*
X607055D03*
X603575Y219685D03*
X599575D03*
X529953Y429528D03*
X525953D03*
X492157Y462598D03*
X488157D03*
X525953Y434646D03*
X529953D03*
X789402Y412205D03*
X785402D03*
X598457Y248031D03*
X594457D03*
X194063Y381890D03*
X198063D03*
X566961Y465354D03*
X562961D03*
X147213Y250394D03*
X151213D03*
X152787Y228740D03*
X148787D03*
X159417Y250394D03*
X163417D03*
X159417Y255906D03*
X163417D03*
X159811Y280709D03*
X163811D03*
X174835Y217323D03*
X170835D03*
X174835Y227559D03*
X170835D03*
X174835Y222441D03*
X170835D03*
X174835Y232283D03*
X170835D03*
X188551Y244882D03*
X192551D03*
X188157Y249606D03*
X192157D03*
G54D97*
X740701Y356299D03*
X746701D03*
X680071Y425984D03*
X686071D03*
X599457Y265354D03*
X593457D03*
X328197Y414961D03*
X322197D03*
X603693Y429528D03*
X609693D03*
X603693Y416142D03*
X609693D03*
X603693Y422835D03*
X609693D03*
X700543Y423622D03*
X706543D03*
X682528Y456299D03*
X676528D03*
X675441Y414173D03*
X669441D03*
X576921Y433465D03*
X582921D03*
X157630Y261811D03*
X163630D03*
G54D98*
X506890Y436614D03*
Y444488D03*
X498362Y440551D03*
X499016Y457480D03*
Y449606D03*
X507543Y453543D03*
G54D169*
X356288Y383685D03*
Y364352D03*
X487784Y217150D03*
Y197817D03*
X715343Y321087D03*
Y301754D03*
X396052Y404945D03*
Y385612D03*
X456288Y330142D03*
Y310809D03*
G54D170*
X486220Y323772D03*
Y329772D03*
X621260Y403299D03*
Y409299D03*
X458268Y364717D03*
Y370717D03*
X668504Y439614D03*
Y433614D03*
X667323Y401819D03*
Y395819D03*
X692913Y309992D03*
Y315992D03*
X468504Y210780D03*
Y216780D03*
X257087Y369441D03*
Y375441D03*
X242913Y368654D03*
Y374654D03*
X274016Y368654D03*
Y374654D03*
G54D171*
X253976Y443283D03*
X248976D03*
X243976D03*
X238976D03*
X233976D03*
X228976D03*
X223976D03*
Y421283D03*
X228976D03*
X233976D03*
X238976D03*
X243976D03*
X248976D03*
X253976D03*
G54D172*
X642126Y457283D03*
X644094D03*
X648031D03*
X650000D03*
Y460827D03*
X648031D03*
X644094D03*
X642126D03*
X630709Y457283D03*
X632677D03*
X636614D03*
X638583D03*
Y460827D03*
X636614D03*
X632677D03*
X630709D03*
G54D173*
X646063Y457283D03*
Y460827D03*
X634646Y457283D03*
Y460827D03*
G54D174*
X568365Y342913D03*
X577165D03*
X585965D03*
X430570Y370866D03*
X439370D03*
X448170D03*
G54D175*
X598819Y354394D03*
Y346394D03*
X759843Y342457D03*
Y350457D03*
X638189Y203480D03*
Y211480D03*
X335827Y378283D03*
Y386283D03*
X636614Y301512D03*
Y309512D03*
X373622Y397969D03*
Y405969D03*
X597244Y375260D03*
Y367260D03*
G54D176*
X333858Y485827D03*
X342913D03*
X351969D03*
X361024D03*
X370079D03*
X365551Y493307D03*
X356496D03*
X347441D03*
X338386D03*
X329331D03*
X333858Y500787D03*
X342913D03*
X351969D03*
X361024D03*
X370079D03*
X386220Y127559D03*
X377165D03*
X368110D03*
X359055D03*
X350000D03*
X354528Y120079D03*
X363583D03*
X372638D03*
X381693D03*
X390748D03*
X386220Y112598D03*
X377165D03*
X368110D03*
X359055D03*
X350000D03*
G54D177*
X300591Y493701D03*
X399016D03*
X419488Y119685D03*
X321063D03*
G54D178*
X525984Y204409D03*
Y213701D03*
G54D179*
X490827Y103386D03*
X573740D03*
X668780D03*
X751693D03*
X172717D03*
X255630D03*
G54D180*
X606102Y133465D03*
X576575D03*
X547047D03*
X517520D03*
X487992D03*
X458465D03*
X784055D03*
X754528D03*
X725000D03*
X695472D03*
X665945D03*
X636417D03*
X287992D03*
X258465D03*
X228937D03*
X199409D03*
X169882D03*
X140354D03*
G54D181*
X591339Y115748D03*
X532283D03*
X473228D03*
X769291D03*
X710236D03*
X651181D03*
X273228D03*
X214173D03*
X155118D03*
G54D182*
X502756Y133465D03*
X561811Y132283D03*
X757480Y227953D03*
X770276D03*
X783071D03*
Y214961D03*
X770276D03*
X757480D03*
Y178740D03*
X770276D03*
X783071D03*
Y165748D03*
X770276D03*
X757480D03*
X680709Y133465D03*
X739764Y132283D03*
X109843Y174016D03*
Y138583D03*
X757480Y277165D03*
X770276D03*
X783071D03*
Y264173D03*
X770276D03*
X757480D03*
X184646Y133465D03*
X243701Y132283D03*
X440551Y507480D03*
X491732Y479921D03*
X523228Y507480D03*
X574409Y479921D03*
X231890Y198425D03*
X222047D03*
X212205D03*
X298819D03*
X288976D03*
X279134D03*
X365748D03*
X355906D03*
X346063D03*
X708661Y192520D03*
X651575D03*
X708661Y202362D03*
Y212205D03*
X651575D03*
G54D183*
X454331Y115748D03*
X610236D03*
X632283D03*
X788189D03*
X136220D03*
X292126D03*
G54D184*
X427953Y238189D03*
G54D185*
X109843Y147244D03*
Y155709D03*
Y164173D03*
X437953Y238189D03*
X447953D03*
X457953D03*
X467953D03*
X477953D03*
X487953D03*
G54D186*
X746850Y207874D03*
X794094Y235039D03*
X746850Y158661D03*
X794094Y185827D03*
X746850Y257087D03*
X794094Y284252D03*
G54D187*
X573228Y455138D03*
Y450138D03*
Y445138D03*
Y440138D03*
X593701D03*
Y445138D03*
Y450138D03*
Y455138D03*
G54D188*
X523685Y453543D03*
X515685D03*
X523685Y442126D03*
X515685D03*
X377102Y375197D03*
X385102D03*
X414110Y396063D03*
X422110D03*
X155055Y287402D03*
X163055D03*
G54D189*
X738583Y411909D03*
Y409350D03*
Y406791D03*
Y404232D03*
Y401673D03*
Y399114D03*
Y396555D03*
Y393996D03*
Y391437D03*
Y388878D03*
X762205D03*
Y391437D03*
Y393996D03*
Y396555D03*
Y399114D03*
Y401673D03*
Y404232D03*
Y406791D03*
Y409350D03*
Y411909D03*
G54D190*
X776378Y324409D03*
X800000D03*
X788189Y342913D03*
G54D191*
X795669Y378346D03*
Y380906D03*
Y383465D03*
Y386024D03*
Y388583D03*
G54D192*
X808661Y369193D03*
Y397736D03*
G54D193*
X135748Y234232D03*
X115748Y241732D03*
X135748Y249232D03*
X115748Y256732D03*
X135748Y264232D03*
X115748Y271732D03*
X135748Y279232D03*
X115748Y286732D03*
X135748Y294232D03*
X115748Y301732D03*
X135748Y309232D03*
X115748Y316732D03*
X135748Y324232D03*
X115748Y331732D03*
X135748Y339232D03*
X115748Y346732D03*
X135748Y354232D03*
X115748Y361732D03*
X135748Y369232D03*
X115748Y376732D03*
X135748Y384232D03*
G54D194*
X108661Y411417D03*
X109055Y205118D03*
G54D195*
X306693Y378937D03*
X298031D03*
Y373031D03*
X306693D03*
G54D196*
X475787Y301181D03*
Y292520D03*
X481693D03*
Y301181D03*
X720669Y394094D03*
Y385433D03*
X726575D03*
Y394094D03*
X609646Y452362D03*
Y443701D03*
X615551D03*
Y452362D03*
X147047Y244094D03*
Y235433D03*
X152953D03*
Y244094D03*
G54D197*
X737874Y350000D03*
X747165D03*
G54D198*
X180535Y330720D03*
X161203D03*
G54D199*
X672047Y299468D03*
Y308268D03*
Y317068D03*
G54D201*
X761417Y361024D03*
X770866D03*
X733858Y429528D03*
X741732D03*
X749606D03*
X757480D03*
X765354D03*
X773228D03*
G54D202*
X651181Y421654D03*
Y423228D03*
Y424803D03*
Y426378D03*
Y427953D03*
Y429528D03*
Y431102D03*
Y432677D03*
Y434252D03*
Y435827D03*
Y437402D03*
Y438976D03*
X627559D03*
Y437402D03*
Y435827D03*
Y434252D03*
Y432677D03*
Y431102D03*
Y429528D03*
Y427953D03*
Y426378D03*
Y424803D03*
Y423228D03*
Y421654D03*
G54D203*
X648031Y442126D03*
X646457D03*
X644882D03*
X643307D03*
X641732D03*
X640157D03*
X638583D03*
X637008D03*
X635433D03*
X633858D03*
X632283D03*
X630709D03*
Y418504D03*
X632283D03*
X633858D03*
X635433D03*
X637008D03*
X638583D03*
X640157D03*
X641732D03*
X643307D03*
X644882D03*
X646457D03*
X648031D03*
G54D204*
X639370Y430315D03*
G54D205*
X349035Y421959D03*
Y424459D03*
Y426959D03*
Y429459D03*
Y431959D03*
Y434459D03*
Y436959D03*
Y439459D03*
X328130D03*
Y436959D03*
Y434459D03*
Y431959D03*
Y429459D03*
Y426959D03*
Y424459D03*
Y421959D03*
G54D206*
X157096Y505565D03*
Y478006D03*
G54D207*
X170875Y498872D03*
X143316Y467349D03*
X170875Y486667D03*
Y470919D03*
G54D209*
X540575Y459882D03*
Y454882D03*
Y449882D03*
Y444882D03*
Y439882D03*
Y434882D03*
Y429882D03*
X562575D03*
Y434882D03*
Y439882D03*
Y444882D03*
Y449882D03*
Y454882D03*
Y459882D03*
G54D211*
X773228Y395079D03*
X781102D03*
X777165Y403606D03*
X795669Y406102D03*
X803543D03*
X799606Y414630D03*
G54D212*
X679772Y401575D03*
X673772D03*
X668898Y427016D03*
Y421016D03*
X419929Y409055D03*
X413929D03*
X599457Y272047D03*
X593457D03*
X478984Y330709D03*
X472984D03*
X376622Y387795D03*
X370622D03*
X163780Y275047D03*
Y269047D03*
G54D213*
X722047Y491732D03*
Y483858D03*
Y475984D03*
Y468110D03*
Y460236D03*
Y452362D03*
Y444488D03*
Y436614D03*
X785039D03*
Y444488D03*
Y452362D03*
Y460236D03*
Y468110D03*
Y475984D03*
Y483858D03*
Y491732D03*
G54D214*
X235039Y479921D03*
X227165D03*
X219291D03*
X241535D03*
X233858Y470079D03*
X225984D03*
X210433Y479921D03*
X241535Y470079D03*
X218110D03*
X210433D03*
X675748Y355906D03*
X685748D03*
X695748D03*
X485827Y498425D03*
X477953D03*
X470079D03*
X462205D03*
X454331D03*
X446457D03*
Y488976D03*
X454331D03*
X462205D03*
X470079D03*
X477953D03*
X485827D03*
X568504Y498425D03*
X560630D03*
X552756D03*
X544882D03*
X537008D03*
X529134D03*
Y488976D03*
X537008D03*
X544882D03*
X552756D03*
X560630D03*
X568504D03*
G54D215*
X254528Y491732D03*
X197441D03*
G54D216*
X225984Y494882D03*
X111811Y111811D03*
X804724D03*
Y481890D03*
X111811D03*
X550787Y377559D03*
X407087Y202362D03*
X621654Y241732D03*
G54D217*
X684646Y432087D03*
Y435827D03*
Y439567D03*
X674409D03*
Y432087D03*
G54D218*
X665748Y355906D03*
G54D219*
X720866D03*
X639764D03*
X720866Y269292D03*
X639764D03*
G54D222*
X443701Y199803D03*
X448701D03*
X453701D03*
X458701D03*
Y223803D03*
X453701D03*
X448701D03*
X443701D03*
G54D223*
X629521Y479172D03*
X631490D03*
X633458D03*
X635427D03*
X637395D03*
X639364D03*
X641332D03*
X643301D03*
X645269D03*
X647238D03*
X649206D03*
X651175D03*
X653143D03*
X655112D03*
X657080D03*
X659049D03*
X661017D03*
X662986D03*
X664954D03*
G54D224*
X675781Y508266D03*
X618694D03*
G54D225*
X675781Y484802D03*
X618694D03*
G54D226*
X664954Y505274D03*
X629521D03*
G54D227*
X415748Y250787D03*
Y252756D03*
Y254724D03*
Y256693D03*
Y258661D03*
Y260630D03*
Y262598D03*
Y264567D03*
Y266535D03*
Y268504D03*
Y270472D03*
Y272441D03*
Y274409D03*
Y276378D03*
Y278346D03*
Y280315D03*
Y282283D03*
Y284252D03*
Y286220D03*
Y288189D03*
Y290157D03*
Y292126D03*
Y294094D03*
Y296063D03*
Y298031D03*
Y300000D03*
Y301969D03*
Y303937D03*
Y305906D03*
Y307874D03*
Y309843D03*
Y311811D03*
Y313780D03*
Y315748D03*
Y317717D03*
Y319685D03*
Y321654D03*
Y323622D03*
Y325591D03*
Y327559D03*
Y329528D03*
Y331496D03*
Y333465D03*
X370472D03*
Y331496D03*
Y329528D03*
Y327559D03*
Y325591D03*
Y323622D03*
Y321654D03*
Y319685D03*
Y317717D03*
Y315748D03*
Y313780D03*
Y311811D03*
Y309843D03*
Y307874D03*
Y305906D03*
Y303937D03*
Y301969D03*
Y300000D03*
Y298031D03*
Y296063D03*
Y294094D03*
Y292126D03*
Y290157D03*
Y288189D03*
Y286220D03*
Y284252D03*
Y282283D03*
Y280315D03*
Y278346D03*
Y276378D03*
Y274409D03*
Y272441D03*
Y270472D03*
Y268504D03*
Y266535D03*
Y264567D03*
Y262598D03*
Y260630D03*
Y258661D03*
Y256693D03*
Y254724D03*
Y252756D03*
Y250787D03*
G54D228*
X540157Y311024D03*
X535157D03*
X530157D03*
X525157D03*
X520157D03*
X515157D03*
Y240157D03*
X520157D03*
X525157D03*
X530157D03*
X535157D03*
X540157D03*
X545157D03*
X550157D03*
X555157D03*
X560157D03*
X565157D03*
Y311024D03*
X560157D03*
X555157D03*
X550157D03*
X545157D03*
G54D229*
X504724Y300591D03*
Y295591D03*
Y290591D03*
Y285591D03*
Y280591D03*
Y275591D03*
Y270591D03*
Y265591D03*
Y260591D03*
Y255591D03*
Y250591D03*
X575591D03*
Y255591D03*
Y260591D03*
Y265591D03*
Y270591D03*
Y275591D03*
Y280591D03*
Y285591D03*
Y290591D03*
Y295591D03*
Y300591D03*
G54D230*
X595177Y211437D03*
Y206437D03*
Y201437D03*
Y196437D03*
X615846D03*
Y201437D03*
Y206437D03*
Y211437D03*
G54D231*
X772159Y411035D03*
X778159D03*
X599494Y241720D03*
X593494D03*
G54D232*
X749988Y323734D03*
Y329734D03*
G54D233*
X200236Y345177D03*
Y342618D03*
Y340059D03*
Y337500D03*
Y334941D03*
Y332382D03*
Y329823D03*
Y327264D03*
Y324705D03*
Y322146D03*
Y319587D03*
Y317028D03*
Y314468D03*
Y311909D03*
Y309350D03*
Y306791D03*
Y304232D03*
Y301673D03*
Y299114D03*
Y296555D03*
Y293996D03*
Y291437D03*
Y288878D03*
Y286319D03*
Y283760D03*
Y281201D03*
Y278642D03*
Y276083D03*
Y273524D03*
Y270965D03*
Y268405D03*
Y265846D03*
Y263287D03*
Y260728D03*
Y258169D03*
Y255610D03*
Y253051D03*
Y250492D03*
Y247933D03*
Y245374D03*
X319449D03*
Y247933D03*
Y250492D03*
Y253051D03*
Y255610D03*
Y258169D03*
Y260728D03*
Y263287D03*
Y265846D03*
Y268406D03*
Y270965D03*
Y273524D03*
Y276083D03*
Y278642D03*
Y281201D03*
Y283760D03*
Y286319D03*
Y288878D03*
Y291437D03*
Y293996D03*
Y296555D03*
Y299114D03*
Y301673D03*
Y304232D03*
Y306791D03*
Y309350D03*
Y311909D03*
Y314468D03*
Y317028D03*
Y319587D03*
Y322146D03*
Y324705D03*
Y327264D03*
Y329823D03*
Y332382D03*
Y334941D03*
Y337500D03*
Y340059D03*
Y342618D03*
Y345177D03*
G54D234*
X209941Y235669D03*
X212500D03*
X215059D03*
X217618D03*
X220177D03*
X222736D03*
X225295D03*
X227854D03*
X230413D03*
X232972D03*
X235532D03*
X238091D03*
X240650D03*
X243209D03*
X245768D03*
X248327D03*
X250886D03*
X253445D03*
X256004D03*
X258563D03*
X261122D03*
X263681D03*
X266240D03*
X268799D03*
X271358D03*
X273917D03*
X276476D03*
X279035D03*
X281594D03*
X284154D03*
X286713D03*
X289272D03*
X291831D03*
X294390D03*
X296949D03*
X299508D03*
X302067D03*
X304626D03*
X307185D03*
X309744D03*
Y354882D03*
X307185D03*
X304626D03*
X302067D03*
X299508D03*
X296949D03*
X294390D03*
X291831D03*
X289272D03*
X286713D03*
X284154D03*
X281594D03*
X279035D03*
X276476D03*
X273917D03*
X271358D03*
X268799D03*
X266240D03*
X263681D03*
X261122D03*
X258563D03*
X256004D03*
X253445D03*
X250886D03*
X248327D03*
X245768D03*
X243209D03*
X240650D03*
X238091D03*
X235532D03*
X232972D03*
X230413D03*
X227854D03*
X225295D03*
X222736D03*
X220177D03*
X217618D03*
X215059D03*
X212500D03*
X209941D03*
G54D267*
X740945Y303937D03*
X749606D03*
G54D268*
X121654Y442520D03*
X804331Y131890D03*
X121654Y127559D03*
G54D269*
X164173Y244882D03*
Y242913D03*
Y240945D03*
Y238976D03*
Y237008D03*
X182283D03*
Y238976D03*
Y240945D03*
Y242913D03*
Y244882D03*
G54D270*
X240748Y168898D03*
X203346D03*
X307677D03*
X270276D03*
X374606D03*
X337205D03*
G54D271*
X679134Y181102D03*
Y223622D03*
G54D272*
X171197Y208268D03*
X179197D03*
G74*
X0Y0D02*
M02*
