*
*
G04 PADS VX.2.4 Build Number: 11282995 generated Gerber (RS-274-X) file*
G04 PC Version=2.1*
*
%IN "GBSC-V1.6-20221119.pcb"*%
*
%MOIN*%
*
%FSLAX35Y35*%
*
*
*
*
G04 PC Standard Apertures*
*
*
G04 Thermal Relief Aperture macro.*
%AMTER*
1,1,$1,0,0*
1,0,$1-$2,0,0*
21,0,$3,$4,0,0,45*
21,0,$3,$4,0,0,135*
%
*
*
G04 Annular Aperture macro.*
%AMANN*
1,1,$1,0,0*
1,0,$2,0,0*
%
*
*
G04 Odd Aperture macro.*
%AMODD*
1,1,$1,0,0*
1,0,$1-0.005,0,0*
%
*
*
G04 PC Custom Aperture Macros*
*
*
*
*
*
*
G04 PC Aperture Table*
*
%ADD010C,0.001*%
%ADD018R,0.04X0.04*%
%ADD030C,0.006*%
%ADD056C,0.00787*%
%ADD068C,0.07299*%
%ADD080C,0.06906*%
%ADD086R,0.032X0.034*%
%ADD102R,0.034X0.032*%
%ADD235R,0.06X0.09*%
%ADD236R,0.042X0.044*%
%ADD237R,0.04543X0.04937*%
%ADD238O,0.1911X0.15567*%
%ADD239C,0.10055*%
%ADD240O,0.17535X0.17535*%
%ADD241O,0.16748X0.16748*%
%ADD242C,0.08874*%
%ADD243C,0.10843*%
%ADD244R,0.07X0.07*%
%ADD245C,0.07*%
%ADD246C,0.11*%
%ADD247R,0.044X0.042*%
%ADD248R,0.16748X0.16748*%
%ADD249O,0.08874X0.04937*%
%ADD250C,0.09661*%
%ADD251R,0.18323X0.12811*%
%ADD252C,0.05331*%
%ADD254C,0.13598*%
%ADD255C,0.1478*%
%ADD256C,0.16748*%
%ADD259O,0.08874X0.10843*%
%ADD260O,0.08874X0.1478*%
%ADD261C,0.06118*%
%ADD273R,0.16748X0.16748*%
%ADD274R,0.12024X0.10843*%
%ADD275O,0.15567X0.13992*%
*
*
*
*
G04 PC Circuitry*
G04 Layer Name GBSC-V1.6-20221119.pcb - circuitry*
%LPD*%
*
*
G04 PC Custom Flashes*
G04 Layer Name GBSC-V1.6-20221119.pcb - flashes*
%LPD*%
*
*
G04 PC Circuitry*
G04 Layer Name GBSC-V1.6-20221119.pcb - circuitry*
%LPD*%
*
G54D10*
G54D18*
G01X665598Y446063D03*
X659598D03*
G54D30*
X756355Y356362D02*
X756370Y356439D01*
X756414Y356504*
X756479Y356547*
X756555Y356562*
X761555*
X761632Y356547*
X761697Y356504*
X761740Y356439*
X761755Y356362*
Y348362*
X761740Y348286*
X761697Y348221*
X761632Y348177*
X761555Y348162*
X756555*
X756479Y348177*
X756414Y348221*
X756370Y348286*
X756355Y348362*
Y356362*
Y348362D02*
Y356362D01*
X756655Y348162D02*
Y356562D01*
X756955Y348162D02*
Y356562D01*
X757255Y348162D02*
Y356562D01*
X757555Y348162D02*
Y356562D01*
X757855Y348162D02*
Y356562D01*
X758155Y348162D02*
Y356562D01*
X758455Y348162D02*
Y356562D01*
X758755Y348162D02*
Y356562D01*
X759055Y348162D02*
Y356562D01*
X759355Y348162D02*
Y356562D01*
X759655Y348162D02*
Y356562D01*
X759955Y348162D02*
Y356562D01*
X760255Y348162D02*
Y356562D01*
X760555Y348162D02*
Y356562D01*
X760855Y348162D02*
Y356562D01*
X761155Y348162D02*
Y356562D01*
X761455Y348162D02*
Y356562D01*
X748619Y381102D02*
X748634Y381179D01*
X748678Y381244*
X748743Y381287*
X748819Y381302*
X769291*
X769368Y381287*
X769433Y381244*
X769476Y381179*
X769491Y381102*
Y368897*
X769476Y368821*
X769433Y368756*
X769368Y368712*
X769291Y368697*
X748819*
X748743Y368712*
X748678Y368756*
X748634Y368821*
X748619Y368897*
Y381102*
X748855Y368697D02*
Y381302D01*
X749155Y368697D02*
Y381302D01*
X749455Y368697D02*
Y381302D01*
X749755Y368697D02*
Y381302D01*
X750055Y368697D02*
Y381302D01*
X750355Y368697D02*
Y381302D01*
X750655Y368697D02*
Y381302D01*
X750955Y368697D02*
Y381302D01*
X751255Y368697D02*
Y381302D01*
X751555Y368697D02*
Y381302D01*
X751855Y368697D02*
Y381302D01*
X752155Y368697D02*
Y381302D01*
X752455Y368697D02*
Y381302D01*
X752755Y368697D02*
Y381302D01*
X753055Y368697D02*
Y381302D01*
X753355Y368697D02*
Y381302D01*
X753655Y368697D02*
Y381302D01*
X753955Y368697D02*
Y381302D01*
X754255Y368697D02*
Y381302D01*
X754555Y368697D02*
Y381302D01*
X754855Y368697D02*
Y381302D01*
X755155Y368697D02*
Y381302D01*
X755455Y368697D02*
Y381302D01*
X755755Y368697D02*
Y381302D01*
X756055Y368697D02*
Y381302D01*
X756355Y368697D02*
Y381302D01*
X756655Y368697D02*
Y381302D01*
X756955Y368697D02*
Y381302D01*
X757255Y368697D02*
Y381302D01*
X757555Y368697D02*
Y381302D01*
X757855Y368697D02*
Y381302D01*
X758155Y368697D02*
Y381302D01*
X758455Y368697D02*
Y381302D01*
X758755Y368697D02*
Y381302D01*
X759055Y368697D02*
Y381302D01*
X759355Y368697D02*
Y381302D01*
X759655Y368697D02*
Y381302D01*
X759955Y368697D02*
Y381302D01*
X760255Y368697D02*
Y381302D01*
X760555Y368697D02*
Y381302D01*
X760855Y368697D02*
Y381302D01*
X761155Y368697D02*
Y381302D01*
X761455Y368697D02*
Y381302D01*
X761755Y368697D02*
Y381302D01*
X762055Y368697D02*
Y381302D01*
X762355Y368697D02*
Y381302D01*
X762655Y368697D02*
Y381302D01*
X762955Y368697D02*
Y381302D01*
X763255Y368697D02*
Y381302D01*
X763555Y368697D02*
Y381302D01*
X763855Y368697D02*
Y381302D01*
X764155Y368697D02*
Y381302D01*
X764455Y368697D02*
Y381302D01*
X764755Y368697D02*
Y381302D01*
X765055Y368697D02*
Y381302D01*
X765355Y368697D02*
Y381302D01*
X765655Y368697D02*
Y381302D01*
X765955Y368697D02*
Y381302D01*
X766255Y368697D02*
Y381302D01*
X766555Y368697D02*
Y381302D01*
X766855Y368697D02*
Y381302D01*
X767155Y368697D02*
Y381302D01*
X767455Y368697D02*
Y381302D01*
X767755Y368697D02*
Y381302D01*
X768055Y368697D02*
Y381302D01*
X768355Y368697D02*
Y381302D01*
X768655Y368697D02*
Y381302D01*
X768955Y368697D02*
Y381302D01*
X769255Y368697D02*
Y381302D01*
G54D56*
X632283Y437008D02*
X646851D01*
Y423228*
X632283*
Y437008*
Y436685D02*
X646851D01*
X632283Y435976D02*
X646851D01*
X632283Y435268D02*
X646851D01*
X632283Y434560D02*
X646851D01*
X632283Y433851D02*
X646851D01*
X632283Y433143D02*
X646851D01*
X632283Y432435D02*
X646851D01*
X632283Y431726D02*
X646851D01*
X632283Y431018D02*
X646851D01*
X632283Y430310D02*
X646851D01*
X632283Y429602D02*
X646851D01*
X632283Y428893D02*
X646851D01*
X632283Y428185D02*
X646851D01*
X632283Y427477D02*
X646851D01*
X632283Y426768D02*
X646851D01*
X632283Y426060D02*
X646851D01*
X632283Y425352D02*
X646851D01*
X632283Y424643D02*
X646851D01*
X632283Y423935D02*
X646851D01*
X100000Y100000D02*
X816535D01*
Y149213*
X800787*
Y294882*
X816535*
Y501575*
X686614*
Y513386*
X100000*
Y417323*
X118110*
Y405906*
X100000*
Y211417*
X118110*
Y198819*
X100000*
Y100000*
G54D68*
X333858Y485827D03*
X342913D03*
X351969D03*
X361024D03*
X370079D03*
X365551Y493307D03*
X356496D03*
X347441D03*
X338386D03*
X329331D03*
X333858Y500787D03*
X342913D03*
X351969D03*
X361024D03*
X370079D03*
X386220Y127559D03*
X377165D03*
X368110D03*
X359055D03*
X350000D03*
X354528Y120079D03*
X363583D03*
X372638D03*
X381693D03*
X390748D03*
X386220Y112598D03*
X377165D03*
X368110D03*
X359055D03*
X350000D03*
G54D80*
X235039Y479921D03*
X227165D03*
X219291D03*
X241535D03*
X233858Y470079D03*
X225984D03*
X210433Y479921D03*
X241535Y470079D03*
X218110D03*
X210433D03*
X665748Y355906D03*
X675748D03*
X685748D03*
X695748D03*
X485827Y498425D03*
X477953D03*
X470079D03*
X462205D03*
X454331D03*
X446457D03*
Y488976D03*
X454331D03*
X462205D03*
X470079D03*
X477953D03*
X485827D03*
X568504Y498425D03*
X560630D03*
X552756D03*
X544882D03*
X537008D03*
X529134D03*
Y488976D03*
X537008D03*
X544882D03*
X552756D03*
X560630D03*
X568504D03*
G54D86*
X651181Y411055D03*
Y407055D03*
X647244Y447213D03*
Y451213D03*
G54D102*
X755937Y392520D03*
X751937D03*
X790913Y425197D03*
X794913D03*
X790913Y420079D03*
X794913D03*
X675228Y446063D03*
X671228D03*
G54D235*
X767855Y352362D03*
X759055D03*
X750255D03*
G54D236*
X758118Y386220D03*
X752118D03*
G54D237*
X668110Y464173D03*
X662598D03*
X668110Y454724D03*
X662598D03*
G54D238*
X300591Y493701D03*
X399016D03*
X419488Y119685D03*
X321063D03*
G54D239*
X490827Y103386D03*
X573740D03*
X668780D03*
X751693D03*
X172717D03*
X255630D03*
G54D240*
X606102Y133465D03*
X576575D03*
X547047D03*
X517520D03*
X487992D03*
X458465D03*
X784055D03*
X754528D03*
X725000D03*
X695472D03*
X665945D03*
X636417D03*
X287992D03*
X258465D03*
X228937D03*
X199409D03*
X169882D03*
X140354D03*
G54D241*
X591339Y115748D03*
X532283D03*
X473228D03*
X769291D03*
X710236D03*
X651181D03*
X273228D03*
X214173D03*
X155118D03*
G54D242*
X502756Y133465D03*
X561811Y132283D03*
X757480Y227953D03*
X770276D03*
X783071D03*
Y214961D03*
X770276D03*
X757480D03*
Y178740D03*
X770276D03*
X783071D03*
Y165748D03*
X770276D03*
X757480D03*
X680709Y133465D03*
X739764Y132283D03*
X109843Y174016D03*
Y138583D03*
X757480Y277165D03*
X770276D03*
X783071D03*
Y264173D03*
X770276D03*
X757480D03*
X184646Y133465D03*
X243701Y132283D03*
X440551Y507480D03*
X491732Y479921D03*
X523228Y507480D03*
X574409Y479921D03*
X231890Y198425D03*
X222047D03*
X212205D03*
X298819D03*
X288976D03*
X279134D03*
X365748D03*
X355906D03*
X346063D03*
X708661Y192520D03*
X651575D03*
X708661Y202362D03*
Y212205D03*
X651575D03*
G54D243*
X454331Y115748D03*
X610236D03*
X632283D03*
X788189D03*
X136220D03*
X292126D03*
G54D244*
X427953Y238189D03*
G54D245*
X109843Y147244D03*
Y155709D03*
Y164173D03*
X437953Y238189D03*
X447953D03*
X457953D03*
X467953D03*
X477953D03*
X487953D03*
G54D246*
X746850Y207874D03*
X794094Y235039D03*
X746850Y158661D03*
X794094Y185827D03*
X746850Y257087D03*
X794094Y284252D03*
G54D247*
X653150Y452606D03*
Y446606D03*
G54D248*
X776378Y324409D03*
X800000D03*
X788189Y342913D03*
G54D249*
X808661Y369193D03*
Y397736D03*
G54D250*
X135748Y234232D03*
X115748Y241732D03*
X135748Y249232D03*
X115748Y256732D03*
X135748Y264232D03*
X115748Y271732D03*
X135748Y279232D03*
X115748Y286732D03*
X135748Y294232D03*
X115748Y301732D03*
X135748Y309232D03*
X115748Y316732D03*
X135748Y324232D03*
X115748Y331732D03*
X135748Y339232D03*
X115748Y346732D03*
X135748Y354232D03*
X115748Y361732D03*
X135748Y369232D03*
X115748Y376732D03*
X135748Y384232D03*
G54D251*
X108661Y411417D03*
X109055Y205118D03*
G54D252*
X157096Y505565D03*
Y478006D03*
G54D254*
X254528Y491732D03*
X197441D03*
G54D255*
X225984Y494882D03*
X111811Y111811D03*
X804724D03*
Y481890D03*
X111811D03*
X550787Y377559D03*
X407087Y202362D03*
X621654Y241732D03*
G54D256*
X720866Y355906D03*
X639764D03*
X720866Y269292D03*
X639764D03*
G54D259*
X675781Y508266D03*
X618694D03*
G54D260*
X675781Y484802D03*
X618694D03*
G54D261*
X664954Y505274D03*
X629521D03*
G54D273*
X639370Y430315D03*
G54D274*
X240748Y168898D03*
X203346D03*
X307677D03*
X270276D03*
X374606D03*
X337205D03*
G54D275*
X679134Y181102D03*
Y223622D03*
X0Y0D02*
M02*
