M48
;FILE_FORMAT=2:4
INCH,LZ
FMAT,2
ICI,OFF
;TYPE=PLATED
T1C.01181
T2C.01575
T3C.01969
T4C.02165
T5C.02756
T6C.0315
T7C.035
T8C.0374
T9C.03937
T11C.04724
T12C.05118
T14C.05512
T15C.05906
T16C.07087
T18C.08268
T19C.08661
T21C.09055
T23C.09843
T25C.11811
;TYPE=NON_PLATED
T10C.04331
T13C.05118
T17C.07874
T20C.09055
T22C.09843
T24C.11811
T26C.1378
%
M72
G90
G93X0Y0
T1C.01181F095S3
X012362Y014567
X010709Y018189
X011365Y018619
X010669Y019134
X011417Y019291
X011339Y021535
X010433Y021614
X010472Y022165
X012559Y034016
X012677Y035433
X012638Y036417
X012638Y037362
X012638Y038543
X010866Y039646
X012913Y040118
X011365Y042619
X012365Y042619
X010669Y043583
X010669Y044488
X011365Y045619
X012365Y045619
X012365Y046619
X011365Y046619
X011365Y049619
X012365Y049619
X012365Y050619
X011365Y050619
X013365Y050619
X014365Y050619
X013365Y049619
X014365Y049619
X015365Y049619
X013365Y048619
X014365Y048619
X015365Y048619
X013365Y047619
X014365Y047619
X013543Y04685
X015365Y046619
X013504Y046417
X014567Y046024
X014094Y046024
X013365Y045619
X014365Y045619
X015365Y045619
X015365Y044619
X013819Y044606
X013898Y043701
X015365Y043619
X01437Y043307
X013365Y042619
X014365Y042619
X015365Y042619
X013365Y041619
X014365Y041619
X013386Y040827
X015365Y040619
X014173Y040512
X014365Y039619
X015365Y039619
X015365Y038619
X014764Y038386
X015365Y037619
X014724Y036654
X015365Y036619
X015365Y035619
X014843Y034803
X015394Y034764
X013365Y034619
X015394Y034213
X015Y03311
X014213Y032756
X015276Y032205
X014843Y03189
X014213Y03189
X015118Y030354
X014882Y029449
X015157Y029291
X014882Y028819
X015394Y027992
X014843Y027205
X014803Y026181
X015315Y026181
X014528Y025945
X015236Y025866
X014803Y025787
X015118Y025551
X014803Y022441
X014961Y020591
X013819Y020276
X013819Y019331
X013937Y018543
X014365Y017619
X015394Y017205
X014724Y01689
X015365Y016619
X01315Y014567
X015365Y012619
X014365Y010619
X013365Y010619
X016365Y010619
X017365Y011619
X017365Y016619
X016365Y016619
X016323Y017323
X017323Y017323
X016575Y019488
X017362Y019528
X015827Y019685
X017008Y019764
X017913Y020039
X015984Y020748
X016575Y020787
X015551Y020984
X016535Y021299
X015945Y021378
X016457Y021772
X015551Y021811
X015945Y022205
X017874Y022244
X015551Y022362
X015906Y022953
X01626Y022992
X017874Y023228
X017638Y024646
X017402Y024921
X016929Y025
X015512Y025039
X015512Y025591
X01748Y026024
X017874Y026063
X01748Y026772
X017874Y026772
X015551Y027244
X017441Y027598
X017874Y027598
X017598Y028504
X017559Y029134
X016929Y029173
X015512Y029488
X017677Y029961
X015748Y030591
X017559Y030591
X017402Y031299
X01563Y031457
X017835Y03248
X016024Y03311
X015472Y033622
X015945Y035118
X01601Y035579
X017677Y035945
X01601Y036579
X01748Y036614
X017402Y037244
X01601Y037579
X017402Y037795
X01601Y038579
X017441Y038622
X017323Y039134
X01601Y039579
X016732Y039646
X016365Y040619
X017365Y040619
X017365Y041619
X016365Y041619
X017365Y042619
X016365Y043619
X016365Y044619
X016365Y045619
X016365Y046619
X017835Y047126
X016365Y047619
X016365Y048619
X016365Y049619
X016365Y050619
X017365Y050619
X018365Y050619
X019365Y050619
X020365Y050619
X018031Y050118
X018365Y049619
X018031Y049606
X018365Y048619
X020365Y047619
X018465Y047165
X019365Y046619
X020365Y046619
X01868Y04654
X019365Y045619
X020365Y045619
X01868Y04554
X019365Y044619
X01868Y04454
X020118Y04378
X018365Y043619
X018365Y042619
X020365Y042619
X020079Y042047
X018365Y041619
X020354Y041417
X018858Y041417
X019365Y040619
X019213Y04
X019252Y038543
X018858Y038543
X019331Y037756
X018858Y037717
X019365Y036619
X020365Y036619
X018701Y035945
X019331Y035945
X020365Y035619
X018071Y033622
X018819Y033504
X019291Y033425
X019173Y032953
X019365Y032619
X018898Y032559
X018898Y032008
X019291Y031378
X018819Y031024
X019291Y030315
X018701Y030236
X019365Y029619
X018701Y029567
X017953Y029488
X019055Y029094
X01811Y029094
X019365Y027619
X019291Y027244
X019213Y026654
X019252Y025709
X018071Y025709
X018504Y025669
X018898Y02563
X01937Y025354
X020394Y024016
X019843Y024016
X020394Y023504
X019843Y023465
X020394Y023031
X019843Y022992
X019016Y022835
X018465Y022835
X01874Y022638
X020394Y022559
X019764Y022402
X019016Y022087
X018898Y021693
X020157Y02126
X019764Y021102
X018504Y020906
X01937Y020787
X018504Y020472
X01937Y020315
X019325Y019619
X018268Y019488
X019173Y018937
X019094Y018465
X019134Y017913
X01937Y017402
X018323Y017323
X019134Y01689
X018365Y016619
X01937Y016496
X018365Y012619
X018365Y011619
X019365Y011619
X020365Y011619
X019365Y010619
X018365Y010619
X020365Y010619
X022365Y010619
X021365Y012619
X022441Y015551
X022047Y02122
X020984Y02122
X020827Y022638
X02122Y022638
X02122Y022953
X020866Y022992
X022008Y024291
X022402Y024409
X021496Y024449
X020945Y030669
X020512Y035197
X020906Y037441
X020906Y037756
X022165Y037835
X022598Y037953
X022165Y038228
X022756Y038425
X022365Y038619
X021772Y038661
X020906Y039094
X022717Y039646
X020945Y04
X021732Y042047
X021365Y042619
X022362Y043228
X021365Y043619
X022402Y043701
X021772Y04437
X021365Y044619
X021365Y049619
X021365Y050619
X022365Y050619
X023365Y050619
X024365Y050619
X024365Y048619
X025365Y047619
X025394Y044961
X023898Y043661
X023365Y043619
X023346Y043228
X023386Y042756
X024921Y041575
X023661Y038661
X023425Y038661
X024365Y038619
X025315Y038465
X023031Y038425
X024291Y037953
X023365Y037619
X023365Y036619
X022953Y036378
X02374Y036299
X023346Y036299
X025039Y036299
X024764Y036299
X023031Y034528
X023268Y034252
X023504Y033976
X024528Y033976
X024803Y033701
X02378Y033622
X025079Y033425
X025354Y024449
X023976Y024449
X024843Y024449
X02315Y024449
X024843Y022992
X024252Y022953
X023307Y022559
X023543Y02126
X024567Y021142
X02378Y020669
X024488Y019646
X024173Y019646
X025197Y019646
X025079Y018937
X025039Y018504
X023189Y017953
X024055Y017874
X025197Y017835
X024055Y017559
X025197Y016811
X023365Y011619
X024365Y011619
X025365Y011619
X023365Y010619
X024365Y010619
X026365Y010619
X027365Y012619
X027362Y014331
X026496Y01437
X026024Y01685
X026024Y017598
X027402Y017835
X026969Y017835
X025984Y019488
X02689Y019528
X025984Y019961
X02689Y020354
X025984Y020394
X026614Y021142
X02752Y021417
X026614Y022835
X027559Y022874
X02563Y022874
X027402Y024449
X026654Y024449
X027756Y031299
X027598Y031654
X026969Y031929
X026693Y032205
X026378Y032283
X026063Y032441
X025827Y032835
X025866Y03315
X026181Y036378
X026575Y036378
X025591Y037992
X025591Y038465
X026063Y038701
X026969Y039685
X026614Y041535
X025827Y041535
X026614Y04252
X02685Y042992
X026299Y043937
X026365Y044619
X027365Y044619
X025984Y044803
X027008Y044843
X027365Y047619
X026365Y047619
X027365Y048619
X026365Y048619
X026365Y049619
X027365Y049619
X028365Y049619
X028365Y048619
X028365Y047619
X029365Y047619
X028819Y047047
X029134Y04689
X028228Y044882
X029134Y044528
X028819Y043819
X030236Y042402
X030079Y042047
X030365Y041619
X02937Y041496
X030039Y041496
X029921Y039646
X030354Y038937
X029685Y038858
X029016Y038622
X028346Y038543
X029803Y038425
X029134Y038346
X028031Y038031
X028365Y037619
X028031Y037559
X02874Y037008
X028071Y036929
X029291Y036496
X028386Y036339
X027992Y036339
X02815Y031378
X028307Y030827
X028583Y030591
X028819Y030354
X030118Y029843
X030394Y029606
X028819Y029488
X029134Y029449
X028425Y024449
X028937Y024449
X029449Y024449
X02937Y022835
X030236Y02248
X029213Y021181
X02937Y020512
X02937Y020197
X029449Y018898
X030394Y017835
X02937Y01437
X027992Y014331
X030394Y014252
X030365Y013619
X030365Y012619
X030365Y011619
X028365Y011619
X030365Y010619
X028365Y010619
X029365Y010619
X031365Y010619
X032365Y010619
X032365Y013619
X031365Y013619
X031365Y014264
X032365Y014264
X031811Y015669
X032874Y01622
X031575Y017362
X030787Y017717
X031575Y018071
X03063Y018898
X032087Y020433
X03185Y020709
X031535Y021024
X030748Y022441
X032756Y022835
X032874Y023425
X030787Y024252
X030433Y024331
X032559Y025039
X032835Y025276
X032756Y026299
X032795Y027087
X032638Y027598
X030551Y029331
X032717Y029921
X032717Y030669
X03126Y032717
X032677Y032717
X031732Y035197
X032362Y035472
X030709Y036339
X031181Y036457
X031575Y036457
X030709Y036811
X031299Y037126
X032913Y037717
X030433Y038425
X031024Y038425
X031365Y038619
X031063Y038937
X031732Y039016
X03126Y041457
X031693Y041496
X030669Y041496
X031339Y042047
X031535Y042441
X031339Y042795
X031575Y043189
X03185Y044291
X031772Y044803
X032323Y045591
X032795Y04563
X031575Y046063
X032283Y046417
X032283Y046732
X031299Y047205
X031929Y047756
X032365Y048619
X03248Y049606
X031365Y049619
X035197Y047795
X033189Y04748
X03437Y047205
X033622Y046732
X033819Y046378
X033622Y04563
X034016Y04563
X033819Y044646
X035276Y044646
X033504Y043583
X034134Y043228
X034055Y042598
X034173Y041929
X034016Y041614
X033425Y041496
X033583Y041102
X034252Y041063
X035039Y04
X034365Y037619
X033189Y03752
X033622Y03748
X033365Y036619
X034365Y036619
X033504Y036299
X034685Y03626
X033937Y03626
X035118Y03622
X034252Y032598
X033031Y030669
X034843Y028543
X03315Y028386
X035276Y028189
X032953Y027835
X033386Y026811
X033346Y025787
X035079Y025551
X034291Y024803
X035394Y023425
X034291Y023268
X033031Y023031
X034843Y021811
X034331Y021693
X033583Y021457
X033819Y017677
X033465Y016102
X034882Y015276
X034291Y015157
X034173Y014488
X033976Y014134
X034843Y013898
X033622Y013898
X034365Y013619
X035365Y013619
X034365Y012619
X034365Y011619
X037365Y010619
X036365Y013619
X035787Y013898
X036339Y014094
X037795Y015039
X03748Y016024
X03748Y017598
X037441Y019016
X037362Y023425
X036394Y023425
X036063Y024213
X037365Y024619
X036142Y024724
X037677Y025079
X037638Y025472
X037638Y026496
X037913Y027205
X037795Y028976
X036378Y030079
X036181Y030354
X036417Y03063
X035945Y031299
X03563Y031575
X037795Y031772
X035787Y032087
X035748Y032598
X03563Y033346
X036378Y033346
X035945Y033898
X037362Y034567
X037717Y03622
X037283Y03626
X036575Y03626
X036142Y036299
X036365Y036619
X037362Y036772
X037244Y037244
X036365Y037619
X037244Y037677
X035472Y039961
X036063Y040039
X037165Y04185
X037559Y04189
X037913Y041929
X035748Y043661
X035866Y044055
X035512Y044055
X036929Y044409
X036654Y044843
X036063Y045236
X036365Y045619
X037365Y045619
X036024Y04563
X036693Y046063
X035787Y046339
X036024Y046654
X036417Y047008
X036614Y047441
X037365Y047619
X038365Y049619
X038365Y048619
X039882Y048228
X038365Y047619
X039365Y047619
X040365Y047619
X038365Y045619
X039365Y045619
X040365Y045619
X038346Y04189
X037992Y039764
X038365Y039619
X039365Y039619
X040365Y039619
X040197Y038465
X039094Y038425
X039055Y038071
X040118Y037756
X039764Y037717
X039331Y037717
X039921Y035827
X040354Y035787
X039365Y035619
X038307Y034528
X038228Y033701
X039724Y032638
X040236Y032559
X039764Y032323
X03811Y032047
X038465Y031969
X03811Y031732
X040157Y031142
X039843Y030866
X038307Y030669
X038622Y030512
X038071Y030079
X040354Y030079
X039528Y029567
X039724Y029252
X039567Y028937
X040315Y028307
X038346Y027913
X038465Y027362
X040394Y026969
X04Y02626
X040039Y025709
X039724Y024843
X04Y024685
X038365Y024619
X038362Y023425
X039252Y023386
X040252Y023386
X038819Y021299
X039764Y021181
X039449Y020551
X039882Y017913
X040197Y016969
X038543Y016024
X039094Y015945
X038622Y014528
X039365Y013619
X040365Y013619
X039365Y012619
X040365Y012619
X040365Y011619
X040365Y010619
X038365Y010619
X039365Y010619
X042365Y010619
X041365Y010619
X042365Y013619
X041365Y013619
X041654Y019213
X042365Y019619
X041772Y020118
X042205Y020748
X041535Y02126
X042913Y021732
X042874Y022047
X04122Y023307
X042008Y023307
X041969Y023819
X041969Y02437
X042365Y024619
X040512Y025984
X042283Y026063
X042323Y026929
X042283Y027244
X040669Y027441
X040669Y028031
X042362Y02815
X042283Y028819
X042913Y029409
X040512Y029724
X042559Y03
X042323Y031181
X040512Y031417
X042323Y032362
X040551Y032717
X040591Y033307
X041365Y035619
X042598Y036929
X042598Y037362
X042047Y03748
X042365Y037619
X041365Y037619
X042047Y037835
X041339Y037992
X041339Y038307
X04063Y038425
X041614Y038465
X042365Y038619
X04122Y038898
X04122Y040157
X041575Y045197
X040827Y045276
X041969Y045512
X040787Y045669
X042325Y046737
X042638Y050315
X042365Y050619
X042717Y050906
X043268Y050315
X043307Y049685
X043583Y049409
X043365Y048619
X043386Y047559
X043325Y046737
X044325Y046737
X043365Y040619
X044365Y040619
X043071Y037756
X045365Y036619
X043071Y036496
X043386Y036024
X043819Y035984
X043365Y035619
X044365Y035619
X045365Y035619
X043661Y035039
X044365Y034619
X043365Y034619
X045365Y034619
X044365Y032619
X043661Y032598
X043819Y031772
X044365Y031619
X044528Y030866
X044961Y030827
X043819Y03063
X045354Y030157
X04315Y029724
X045365Y029619
X044365Y029619
X044365Y028619
X043365Y028619
X043819Y027835
X044365Y027619
X045394Y026772
X043819Y026654
X044365Y026619
X044365Y025619
X043365Y025619
X043346Y024843
X044843Y022953
X044882Y02185
X043268Y020787
X043307Y020157
X043858Y020079
X043858Y019449
X043307Y019409
X044843Y019331
X043365Y013619
X044365Y013619
X043365Y012619
X044365Y012619
X044365Y011619
X043365Y011619
X043365Y010619
X045365Y010619
X044365Y010619
X046365Y010619
X047365Y010619
X04563Y015157
X04563Y017244
X047835Y019291
X045433Y01937
X046654Y019409
X04626Y019409
X047874Y019685
X047441Y019724
X046535Y020039
X045433Y02063
X045906Y020906
X045591Y027362
X046365Y027619
X047365Y027619
X046063Y02815
X045512Y028268
X047323Y028346
X046365Y028619
X047323Y028661
X045512Y028898
X047008Y029094
X047008Y029409
X046365Y029619
X045787Y030157
X047365Y030619
X046772Y030866
X046339Y030906
X046365Y031619
X047365Y031619
X046365Y032619
X047365Y032619
X046365Y034619
X047365Y034619
X046365Y035619
X047365Y035619
X04563Y035984
X046063Y035984
X047365Y036619
X046365Y036619
X047795Y046378
X046811Y047598
X047365Y047619
X049764Y05063
X050394Y047402
X049173Y047283
X048346Y046339
X048346Y045984
X048701Y042598
X048701Y042087
X04874Y041575
X050394Y040118
X050365Y039619
X049365Y035619
X048898Y035551
X048465Y035551
X049365Y034619
X048365Y034619
X050365Y033619
X049365Y033619
X048365Y033619
X049365Y032619
X048819Y03185
X048386Y03185
X050365Y031619
X049365Y031619
X050236Y03122
X049803Y03122
X048898Y030827
X048465Y030827
X050365Y030619
X049365Y030619
X049016Y030315
X048583Y030315
X04937Y028898
X04937Y028583
X048189Y027874
X049213Y027835
X048189Y027559
X049213Y02752
X048307Y026929
X050197Y02
X049173Y019685
X049606Y019646
X050365Y019619
X049016Y019291
X050365Y012619
X049365Y011619
X048365Y011619
X050365Y011619
X050365Y010619
X048365Y010619
X051365Y010619
X052365Y010619
X051365Y011619
X052365Y019619
X051365Y019619
X050827Y02
X052559Y02
X051732Y020039
X051614Y022047
X05252Y02248
X05252Y024961
X052365Y025619
X051365Y027619
X052365Y027619
X052365Y028619
X051365Y028619
X052365Y029619
X051365Y029619
X052126Y032362
X051365Y032619
X052365Y038619
X050984Y039528
X051417Y039528
X050827Y040118
X051024Y041969
X050748Y042244
X051339Y043701
X051654Y043701
X051339Y044803
X051693Y044803
X051299Y045945
X051575Y045945
X052835Y047402
X051811Y047441
X052362Y04752
X051693Y048268
X050433Y048898
X050591Y049921
X051181Y050354
X050591Y050669
X055365Y047619
X054488Y046575
X055157Y045866
X055157Y044764
X053386Y043465
X055315Y04311
X054882Y043031
X053386Y042953
X053365Y042619
X054365Y042619
X055365Y042619
X053346Y039331
X054365Y038619
X053365Y038619
X053365Y037619
X055365Y036619
X054365Y036619
X055365Y035619
X053661Y035118
X053976Y035079
X053622Y034488
X053976Y034213
X053622Y033937
X055315Y033898
X053346Y032362
X053365Y029619
X055365Y029619
X054365Y029619
X053365Y028619
X054365Y028619
X055365Y028619
X054365Y027619
X055365Y027619
X053365Y027619
X054365Y025619
X053365Y025619
X05437Y025079
X05374Y025039
X05311Y025
X055Y022874
X053898Y02252
X054685Y02248
X05311Y02248
X053031Y022047
X054134Y021929
X054685Y021929
X054094Y020827
X053268Y020039
X054365Y019619
X055365Y019619
X053365Y019619
X055365Y011619
X054365Y011619
X053365Y010619
X055365Y010619
X054365Y010619
X056365Y010619
X056365Y011619
X057365Y011619
X056365Y012619
X056365Y019619
X057402Y019646
X056102Y020551
X056811Y021142
X057402Y021535
X056772Y022047
X056457Y022717
X056024Y022717
X057047Y022913
X056535Y023189
X056024Y023189
X055551Y023228
X057362Y024055
X057874Y02437
X057365Y024619
X056365Y034619
X05685Y035
X056102Y035
X05685Y035315
X056102Y035315
X056365Y035619
X056102Y035827
X056102Y036142
X056365Y036619
X057365Y037619
X056365Y037619
X056365Y038619
X057362Y038622
X05622Y042362
X056614Y042362
X057638Y042441
X057244Y042441
X055591Y043307
X057205Y043465
X056929Y043465
X057835Y045551
X057126Y046102
X057874Y046417
X057087Y046496
X055866Y046575
X056654Y047677
X056063Y047677
X056365Y050619
X057559Y05063
X05878Y05063
X059365Y050619
X060365Y050619
X059365Y049619
X060365Y049619
X05815Y048858
X059365Y048619
X060365Y048619
X058504Y048504
X059365Y047619
X060365Y047619
X059094Y047087
X060157Y046654
X058365Y046619
X058425Y046181
X060276Y046102
X059882Y046102
X058365Y045619
X060365Y045619
X06Y045
X058819Y043583
X05878Y04315
X059921Y042323
X05874Y041929
X058583Y041772
X060365Y039619
X058365Y038619
X059724Y03815
X059094Y03815
X059055Y037638
X058365Y037619
X058365Y035619
X059365Y034619
X06Y034134
X059724Y034134
X059331Y034016
X060365Y031619
X059365Y031619
X060315Y029882
X058365Y029619
X060315Y029567
X060315Y029134
X059016Y028819
X058365Y028619
X059016Y028504
X059016Y028031
X059016Y027717
X058365Y027619
X058819Y026575
X060394Y025945
X060365Y025619
X060365Y024619
X058819Y024488
X060394Y024213
X060365Y023619
X060365Y023052
X058365Y022619
X058365Y021619
X05878Y019606
X058425Y019567
X059449Y019291
X059213Y018937
X059213Y018622
X058365Y018619
X060315Y018071
X059291Y018071
X05811Y018031
X058365Y015619
X059365Y015619
X060365Y015619
X060365Y014619
X058365Y014619
X059365Y014619
X060365Y010619
X058365Y010619
X059365Y010619
X061365Y010619
X062365Y010619
X062365Y011619
X062365Y012619
X062365Y013619
X061365Y014619
X062365Y014619
X062795Y015236
X062795Y015551
X062365Y015619
X061365Y015619
X062756Y018071
X06126Y01811
X062087Y01815
X062441Y020748
X061365Y021619
X062365Y021619
X062365Y023052
X061654Y02311
X061365Y023619
X062365Y025619
X061365Y025619
X060669Y025945
X060748Y026496
X060472Y026496
X062365Y026619
X061365Y026619
X060551Y026811
X062365Y027619
X061365Y027619
X062365Y028619
X060591Y029134
X062365Y029619
X062835Y03
X062365Y031619
X061365Y031619
X061811Y034134
X061365Y034619
X062365Y034619
X060669Y034646
X060945Y034646
X06185Y034764
X062365Y035619
X061365Y037619
X060433Y037677
X060866Y037835
X060433Y037992
X061378Y037992
X06185Y039646
X061378Y039882
X061772Y039921
X061614Y040276
X062874Y041457
X06248Y04185
X060669Y043858
X060591Y044331
X060551Y044646
X062008Y045276
X062008Y045591
X061732Y045669
X061732Y045945
X062244Y046654
X062677Y047087
X061969Y047205
X061365Y047619
X062365Y047619
X061365Y049619
X062365Y049619
X064365Y050619
X065365Y050619
X063365Y049619
X064365Y049619
X065365Y049619
X064331Y048622
X064921Y048622
X065365Y048619
X06315Y048583
X06374Y048583
X065315Y047087
X065315Y046614
X064606Y046457
X063465Y046417
X065315Y046102
X065315Y045748
X064606Y045433
X063465Y045354
X06437Y044724
X063465Y044606
X064764Y041417
X063976Y041339
X063228Y041142
X064488Y041142
X064803Y040039
X062992Y040039
X064488Y039921
X064134Y039685
X063189Y039331
X064331Y039291
X064843Y039291
X063365Y036619
X065365Y036619
X065365Y035619
X065365Y034619
X063365Y034619
X063365Y031619
X06311Y03
X06378Y029764
X063504Y029764
X065365Y028619
X064365Y028619
X063365Y028619
X065365Y027619
X065365Y026619
X064365Y025619
X063365Y025619
X063365Y024619
X065365Y024619
X063365Y023619
X063365Y023052
X063365Y021619
X063268Y020709
X065Y020315
X064134Y019843
X063583Y019843
X064365Y019619
X063543Y019409
X064134Y019173
X064622Y018031
X063622Y018031
X064365Y015619
X065365Y015619
X064365Y014619
X063365Y014619
X065365Y014619
X065365Y010619
X064365Y010619
X063365Y010619
X066365Y011619
X067365Y011619
X066365Y014619
X067365Y014619
X066365Y015619
X067365Y015619
X065622Y018031
X066622Y018031
X066811Y018583
X066365Y019619
X067365Y019619
X066365Y020619
X067365Y020619
X066693Y02189
X066614Y022323
X067638Y024567
X066365Y024619
X067113Y025312
X066365Y026619
X067365Y027619
X066365Y027619
X067365Y028619
X066365Y028619
X066339Y029291
X066063Y029291
X067047Y029409
X067323Y029409
X066063Y029843
X066339Y029843
X066732Y033937
X06685Y034764
X067087Y036614
X066365Y036619
X067795Y037165
X06626Y038622
X065748Y038622
X067008Y038858
X066142Y039134
X066654Y039134
X065748Y039134
X067362Y039213
X067365Y039619
X065551Y041102
X067874Y041811
X06748Y04185
X066378Y042008
X067795Y042047
X065512Y042795
X067365Y043619
X065472Y04378
X067874Y044331
X06752Y045
X065669Y045748
X067205Y045748
X066496Y045866
X067205Y046575
X065906Y046732
X067677Y047047
X067283Y047047
X066969Y047283
X066102Y048583
X067365Y049619
X066365Y049619
X068365Y050619
X068365Y049619
X069882Y048701
X068365Y048619
X069365Y048619
X069882Y048346
X068365Y047619
X069365Y047619
X068071Y046654
X069365Y046619
X068425Y046614
X068425Y04626
X069094Y045866
X06874Y045827
X069365Y045619
X06874Y045472
X068898Y045079
X069331Y045079
X069331Y044724
X068031Y044567
X068386Y044409
X067992Y044016
X068031Y043583
X070157Y043346
X06815Y042047
X070197Y041929
X070276Y041654
X068071Y041496
X070276Y041299
X070276Y040945
X069213Y040039
X070236Y039646
X069252Y039567
X070354Y039291
X069213Y039134
X069213Y038661
X068661Y03811
X069134Y03811
X069173Y037677
X068543Y037638
X068071Y034724
X068071Y033976
X070236Y033425
X070354Y032953
X068504Y03063
X06878Y03063
X069882Y029055
X069567Y029016
X069331Y028661
X068365Y027619
X068853Y027619
X068853Y026619
X068228Y025827
X068858Y025394
X068113Y025312
X068661Y024567
X068622Y023819
X068819Y023425
X069843Y023031
X069213Y021929
X069365Y020619
X068365Y020619
X069365Y019619
X068365Y019619
X069622Y018031
X070354Y016181
X068071Y01563
X070365Y015619
X068661Y015512
X068661Y015197
X068365Y014619
X070365Y014619
X069016Y014606
X068365Y012619
X070365Y012619
X069365Y011619
X068365Y011619
X068365Y010619
X070365Y010619
X069365Y010619
X072365Y010619
X071365Y010619
X072365Y011619
X070984Y014094
X071365Y014619
X071181Y015157
X071181Y015472
X071142Y016181
X072677Y016929
X072402Y017874
X071102Y01811
X071811Y019764
X071811Y020276
X072283Y020276
X071811Y020669
X07189Y022638
X072835Y022638
X070719Y024579
X071365Y024619
X072365Y024619
X070719Y025579
X071365Y025619
X072365Y025619
X070719Y026579
X070719Y027579
X071732Y028386
X071299Y028425
X072365Y028619
X071732Y029213
X071299Y029252
X070984Y029882
X07252Y029882
X070551Y029921
X072087Y029921
X072365Y030619
X07063Y033819
X071365Y034619
X071365Y036619
X07185Y037874
X071575Y037874
X071654Y038346
X071654Y038701
X07063Y039803
X072835Y040039
X072559Y041102
X072244Y041181
X070669Y041299
X071811Y042835
X071063Y043346
X07122Y044449
X070433Y045236
X070827Y046024
X073365Y048619
X074365Y048619
X075365Y048619
X073365Y047619
X074365Y047619
X075365Y047619
X073365Y046619
X074365Y046619
X073365Y045619
X075365Y045619
X073661Y045236
X074055Y045197
X074094Y044764
X075365Y044619
X075365Y043855
X074365Y043855
X075197Y041929
X072992Y041102
X07311Y040669
X07311Y040315
X07311Y040039
X073365Y039619
X073504Y038031
X073228Y038031
X074365Y036619
X073365Y036619
X074134Y036181
X073858Y036181
X073365Y035619
X074365Y034619
X075157Y034173
X074134Y033976
X074409Y033976
X074365Y033619
X073365Y033619
X075197Y033465
X074921Y033465
X073189Y033031
X073465Y033031
X074365Y032619
X075365Y031619
X074365Y028619
X073365Y028619
X073365Y027619
X074365Y027619
X074365Y026619
X073365Y026619
X073365Y025619
X073365Y024619
X074365Y024619
X075365Y024619
X073189Y022992
X074365Y021619
X073995Y021304
X073995Y020304
X074365Y018619
X075365Y018619
X073307Y018228
X073543Y017913
X073858Y017913
X074365Y017619
X073365Y017619
X07374Y016457
X07311Y016457
X073819Y016063
X073819Y015472
X073189Y015118
X073365Y012619
X074365Y012619
X074365Y011619
X073365Y011619
X075365Y011619
X073365Y010619
X074365Y010619
X077365Y010619
X076365Y010619
X076365Y012619
X076365Y015619
X077365Y015619
X07563Y01563
X07689Y019843
X077365Y023619
X076365Y024619
X077365Y024619
X076365Y025619
X077365Y025619
X076365Y031619
X075827Y032402
X076102Y032402
X076365Y032619
X077365Y033619
X076142Y033701
X075866Y033701
X075433Y034173
X077087Y034488
X076654Y034528
X077717Y035276
X077283Y035315
X077365Y037619
X077047Y040551
X075669Y041181
X076693Y041417
X076299Y041693
X076732Y041732
X076365Y043855
X077365Y043855
X076365Y044619
X077365Y044619
X076365Y045619
X077365Y045619
X076365Y047619
X077365Y047619
X077598Y048386
X076365Y048619
X077598Y048661
X079365Y048619
X07937Y043819
X08Y043622
X079724Y043622
X07937Y043465
X080039Y04311
X079764Y04311
X079488Y04311
X079213Y04311
X078307Y042835
X078031Y042835
X078543Y042283
X078543Y042008
X079252Y039724
X079252Y03937
X078937Y039213
X078937Y038858
X078365Y038619
X080365Y038619
X080365Y036619
X079365Y036619
X079803Y036457
X080079Y036457
X079365Y035619
X078365Y035619
X080365Y035619
X078583Y035315
X078858Y035315
X080365Y034619
X080157Y03374
X080365Y030619
X079365Y030619
X079365Y029619
X078365Y028619
X079365Y027619
X079365Y026619
X078365Y025619
X079365Y025619
X078365Y024619
X079365Y024619
X078365Y023619
X079365Y019619
X078268Y01937
X079365Y017619
X079365Y016619
X079365Y015619
X080365Y014619
X078365Y014619
X079365Y014619
X079567Y014134
X079365Y012619
X078365Y010619
X079365Y010619
X081365Y010619
X081365Y011619
X081378Y012165
X081024Y012165
X080866Y014606
X081365Y014619
X081365Y030619
X081365Y031619
X081365Y032619
X081365Y033619
X080433Y03374
X081365Y034619
X081365Y035619
X081365Y036619
X081365Y037619
X081365Y038619
X081365Y040619
X081365Y041619
X081365Y042619
X081365Y043619
X081365Y044619
X081365Y045619
X081365Y046619
X080512Y046929
X081365Y047619
X081365Y048619
T2C.01575F095S3
X080994Y036919G85X080738Y036919
X080994Y039774G85X080738Y039774
T3C.01969F095S3
X016339Y029252
X025197Y03185
X016693Y034843
X026732Y042126
X029685Y040984
X032913Y040984
X032913Y039213
X045787Y038425
X045787Y038937
X047087Y040984
X046772Y041339
X045394Y043268
X04626Y043661
X045394Y043898
X045433Y046811
X051299Y034331
X051693Y033937
X050315Y032638
X050591Y032362
X054646Y026535
X054685Y025984
X059252Y02252
X058228Y023386
X059016Y025354
X059055Y025945
X056693Y026535
X059606Y030827
X060079Y030906
X060433Y032283
X060945Y032283
X058307Y042756
X066417Y044213
X065906Y040827
X066496Y040709
X068031Y032047
X068031Y028622
X064606Y024331
X063819Y021772
X075787Y030276
X075787Y030669
X076142Y030866
X075472Y030906
X075039Y035945
X075236Y039764
X075236Y040827
X074488Y041575
T4C.02165F197S55
X079823Y037392
X079823Y039301
T5C.02756F197S55
X044646Y048898
X044646Y049843
X047008Y049843
X04622Y049843
X045433Y049843
X047795Y049843
X048583Y049843
X04622Y048898
X047008Y048898
X047795Y048898
X045433Y048898
X048583Y048898
X052913Y048898
X053701Y048898
X054488Y048898
X055276Y048898
X056063Y048898
X05685Y048898
X055276Y049843
X054488Y049843
X056063Y049843
X05685Y049843
X053701Y049843
X052913Y049843
T6C.0315F197S55
X067578Y050689G85X067578Y050964
X061869Y050689G85X061869Y050964
X067578Y048165G85X067578Y048795
X061869Y048165G85X061869Y048795
T7C.035F197S55
X042795Y023819
X043795Y023819
X044795Y023819
X045795Y023819
X046795Y023819
X047795Y023819
X048795Y023819
T8C.0374F197S55
X035Y01126
X035Y012756
X035197Y048583
X034291Y048583
X033386Y048583
X032933Y049331
X034744Y049331
X033839Y049331
X035197Y050079
X033386Y050079
X034291Y050079
X036102Y050079
X037008Y050079
X036555Y049331
X03565Y049331
X036102Y048583
X037008Y048583
X035906Y012756
X037717Y012756
X036811Y012756
X038622Y012756
X037264Y012008
X035453Y012008
X036358Y012008
X038169Y012008
X039075Y012008
X036811Y01126
X035906Y01126
X037717Y01126
X038622Y01126
T9C.03937F197S55
X010984Y014724
X010984Y015571
X010984Y016417
X022205Y019843
X02122Y019843
X021811Y047008
X021043Y047008
X022598Y047008
X021929Y047992
X022717Y047992
X021043Y047992
X024154Y047992
X023504Y047992
X023386Y047008
X024154Y047008
X023189Y019843
X027913Y019843
X029882Y019843
X028898Y019843
X034606Y019843
X036575Y019843
X035591Y019843
X066575Y035591
X067575Y035591
X069575Y035591
X068575Y035591
X077638Y032835G85X077638Y032047
X08Y032835G85X08Y032047
X079213Y034291G85X078425Y034291
T10C.04331F139S55
X01571Y047801
X01571Y050556
T11C.04724F139S55
X049173Y047992
X044055Y050748
X052323Y050748
X057441Y047992
X065157Y02122
X065157Y019252
X077028Y016575
X075748Y016575
X075748Y017874
X077028Y017874
X070866Y019252
X070866Y020236
X070866Y02122
X077028Y021496
X075748Y021496
X075748Y022795
X077028Y022795
X077028Y026417
X075748Y026417
X075748Y027717
X077028Y027717
X078307Y027717
X078307Y026417
X078307Y022795
X078307Y021496
X078307Y017874
X078307Y016575
X06061Y012992G85X06061Y013701
X057657Y012992G85X057657Y013701
X058815Y011575G85X059453Y011575
X052909Y011575G85X053547Y011575
X054705Y012992G85X054705Y013701
X051752Y012992G85X051752Y013701
X047004Y011575G85X047642Y011575
X048799Y012992G85X048799Y013701
X045846Y012992G85X045846Y013701
X078406Y012992G85X078406Y013701
X075453Y012992G85X075453Y013701
X07661Y011575G85X077248Y011575
X070705Y011575G85X071343Y011575
X0725Y012992G85X0725Y013701
X069547Y012992G85X069547Y013701
X064799Y011575G85X065437Y011575
X066594Y012992G85X066594Y013701
X063642Y012992G85X063642Y013701
X028799Y012992G85X028799Y013701
X025846Y012992G85X025846Y013701
X027004Y011575G85X027642Y011575
X021098Y011575G85X021736Y011575
X022894Y012992G85X022894Y013701
X019941Y012992G85X019941Y013701
X015193Y011575G85X015831Y011575
X016988Y012992G85X016988Y013701
X014035Y012992G85X014035Y013701
T12C.05118F107S55
X013575Y023423
X011575Y024173
X013575Y024923
X011575Y025673
X013575Y026423
X011575Y027173
X013575Y027923
X011575Y028673
X013575Y029423
X011575Y030173
X013575Y030923
X011575Y031673
X013575Y032423
X011575Y033173
X013575Y033923
X011575Y034673
X013575Y035423
X011575Y036173
X013575Y036923
X011575Y037673
X013575Y038423
T13C.05118F107S55
X062952Y050527
X066495Y050527
T14C.05512F107S55
X074685Y015866
X074685Y020787
X074685Y025709
X079409Y028425
X079409Y023504
X079409Y018583
T15C.05906F107S55
X010984Y013858
X010984Y017402
T16C.07087F081S55
X068031Y01811G85X067795Y01811
X068031Y022362G85X067795Y022362
T17C.07874F081S55
X02437Y013228
X018465Y013346
X050276Y013346
X056181Y013228
X073976Y013228
X068071Y013346
T18C.08268F074S55
X029744Y04937G85X030374Y04937
X039587Y04937G85X040217Y04937
X042264Y011969G85X041634Y011969
X032421Y011969G85X031791Y011969
T19C.08661F074S55
X020335Y01689
X024075Y01689
X019744Y049173
X025453Y049173
X027028Y01689
X030768Y01689
X03372Y01689
X037461Y01689
T20C.09055F066S55
X017272Y010339
X049083Y010339
X066878Y010339
T21C.09055F066S55
X025563Y010339
X063976Y035591
X063976Y026929
X057374Y010339
X075169Y010339
X072087Y026929
X072087Y035591
T22C.09843F066S55
X013622Y011575
X029213Y011575
X045433Y011575
X061024Y011575
X063228Y011575
X078819Y011575
T23C.09843F066S55
X022598Y049488
T24C.11811F069S658
X010591Y041142G85X011142Y041142
X01063Y020512G85X011181Y020512
T25C.11811F069S658
X063937Y043031
T26C.1378F035S794
X011181Y011181
X011181Y048189
X055079Y037756
X040709Y020236
X080472Y011181
X062165Y024173
X080472Y048189
M30
